<?xml version="1.0" encoding="utf-8"?>
<!-- Generator: Adobe Illustrator 16.0.3, SVG Export Plug-In . SVG Version: 6.00 Build 0)  -->
<!DOCTYPE svg PUBLIC "-//W3C//DTD SVG 1.1//EN" "http://www.w3.org/Graphics/SVG/1.1/DTD/svg11.dtd">
<svg version="1.1" id="Layer_1" xmlns="http://www.w3.org/2000/svg" xmlns:xlink="http://www.w3.org/1999/xlink" x="0px" y="0px"
	 width="451.423px" height="320.033px" viewBox="0 0 451.423 320.033" enable-background="new 0 0 451.423 320.033"
	 xml:space="preserve">
<g>
	<path fill="#7C7C7D" d="M339.372,180.509c-2.949,0-7.231,0.823-13.074,2.819c-8.004,2.732-15.615,4.061-22.732,4.17
		c0.317,0.005,0.636,0.007,0.955,0.007c0.011,0,0.019,0,0.03,0c7.393,0,15.33-1.322,23.695-4.178
		c5.215-1.782,9.187-2.629,12.077-2.791c-0.291-0.019-0.6-0.029-0.924-0.029c-0.003,0-0.007,0-0.01,0
		C339.383,180.509,339.378,180.509,339.372,180.509 M341.336,178.509c-0.322,0-0.656,0.009-1.001,0.026
		c1.521,0.086,2.782,0.388,3.815,0.909c1.24,0.62,2.124,1.595,2.581,2.744c0.309,0.764,0.44,1.591,0.44,2.445
		c-0.002,1.418-0.355,2.924-0.936,4.471c-0.581,1.546-1.395,3.134-2.353,4.695c-1.918,3.12-4.412,6.13-6.835,8.387
		c-6.625,6.169-8.953,11.919-9.726,14.55l1.854,0.327c0.669-2.456,2.902-8.438,9.816-14.877c2.423-2.257,4.917-5.267,6.835-8.388
		c0.959-1.561,1.772-3.148,2.354-4.695c0.58-1.547,0.934-3.052,0.936-4.471c0-0.854-0.132-1.682-0.44-2.445
		c-0.457-1.148-1.341-2.124-2.58-2.744C344.857,178.818,343.288,178.51,341.336,178.509 M263.432,128.835
		c-0.597,0.47-1.168,0.951-1.713,1.44c-5.292,4.763-8.082,10.329-8.088,16.519c0,4.636,1.581,9.673,5.025,15.003
		c9.304,14.375,24.587,23.698,43.947,23.708c0.329,0,0.658-0.003,0.989-0.008c-18.907-0.311-33.839-9.562-42.99-23.7
		c-3.444-5.331-5.024-10.368-5.025-15.003c0.006-6.19,2.796-11.756,8.087-16.519c0.437-0.392,0.891-0.779,1.361-1.159
		L263.432,128.835"/>
	<path fill="#7C7C7D" d="M409.021,134.228l-0.461,0.74c0.63,0.638,1.241,1.289,1.837,1.951c10.713,11.92,15.76,27.555,15.761,42.545
		c-0.001,9.166-1.887,18.101-5.549,25.822c-3.661,7.719-9.109,14.232-16.229,18.487c-5.402,3.229-8.651,6.435-10.559,9.589
		c-1.904,3.157-2.507,6.292-2.511,9.54c-0.001,2.875,0.489,5.825,0.984,8.839c0.547,3.327,0.729,6.309,0.729,8.81
		c0,5.001-0.729,8.076-0.742,8.136c-0.056,0.235-0.191,0.431-0.37,0.566c0.106,0.081,0.231,0.141,0.37,0.174
		c0.078,0.019,0.156,0.027,0.233,0.027c0.452,0,0.862-0.309,0.972-0.768c0.014-0.06,0.744-3.137,0.744-8.142
		c0-2.5-0.183-5.48-0.729-8.804c-0.495-3.014-0.985-5.965-0.984-8.841c0.004-3.247,0.605-6.381,2.51-9.538
		c1.907-3.155,5.156-6.359,10.558-9.588c7.119-4.255,12.567-10.768,16.229-18.487c3.662-7.722,5.548-16.656,5.549-25.822
		c-0.001-14.99-5.048-30.625-15.761-42.545C410.775,135.999,409.914,135.101,409.021,134.228"/>
	<path fill="#7C7C7D" d="M161.889,187.718c-4.755,0-9.001,3.428-9.854,8.264l-11.258,63.839c-0.955,5.417,2.695,10.63,8.111,11.585
		l169.826,29.944c0.58,0.103,1.159,0.152,1.73,0.152c4.755,0,9.001-3.428,9.854-8.263l11.256-63.84
		c0.955-5.416-2.695-10.629-8.111-11.584l-4.266-0.752c-0.197,0.722-0.259,1.139-0.265,1.173c-0.066,0.503-0.496,0.868-0.99,0.868
		c-0.044,0-0.088-0.003-0.133-0.009c-0.423-0.056-0.75-0.37-0.842-0.762c-0.105,0.452-0.511,0.771-0.973,0.771
		c-0.044,0-0.088-0.003-0.133-0.009c-0.548-0.073-0.933-0.576-0.859-1.123c0.005-0.041,0.083-0.611,0.358-1.586L163.62,187.87
		C163.039,187.768,162.46,187.718,161.889,187.718"/>
	<path fill="#3E4045" d="M328.654,218.202L328.654,218.202 M327.323,216.736c-0.276,0.938-0.354,1.48-0.357,1.502l0,0l0,0
		c-0.005,0.032-0.011,0.064-0.018,0.095c0.092,0.393,0.419,0.706,0.842,0.762c0.045,0.006,0.089,0.009,0.133,0.009
		c0.494,0,0.924-0.365,0.99-0.868c0.006-0.035,0.067-0.452,0.265-1.173L327.323,216.736"/>
	<path fill="#7C7C7D" d="M104.313,264.592l-0.883,0.156l0,0L104.313,264.592 M108.815,261.578l0.38,2.153l-0.998,0.176l2.002,11.351
		c0.115,0.657-0.02,1.358-0.434,1.948c-0.411,0.59-1.025,0.957-1.683,1.073l-0.865,0.153c-0.112,0.02-0.225,0.032-0.338,0.037
		l0.352,1.996c0.116,0.658,0.482,1.271,1.072,1.684c0.455,0.319,0.978,0.473,1.494,0.473c0.153,0,0.306-0.014,0.456-0.04
		l0.865-0.153c0.657-0.115,1.271-0.482,1.683-1.072c0.414-0.59,0.549-1.292,0.434-1.949l-2.002-11.35l0.998-0.176l-0.391-2.22
		l-1.455,0.257l-0.583-3.307l-0.78,0.138L108.815,261.578 M107.622,250.245l-0.781,0.137l0.173,0.982l1.626,9.223l0.781-0.137
		L107.622,250.245 M112.269,239.404l-1.415,0.249l-0.143,0.025c-0.228,0.041-0.45,0.113-0.66,0.216l4.008,22.728
		c0.026,0.149,0.04,0.3,0.04,0.452c0.001,0.518-0.152,1.042-0.473,1.498c-0.412,0.59-1.025,0.957-1.683,1.072l-0.104,0.019
		l0.218,1.237l0.78-0.138l0.583,3.307l1.559-0.274c0.397-0.07,0.772-0.242,1.103-0.49l0.005-0.004
		c0.101-0.076,0.199-0.155,0.29-0.247c0.103-0.101,0.199-0.21,0.285-0.332c0.414-0.589,0.549-1.292,0.433-1.948L112.269,239.404
		 M95.881,197.544c-0.058,0-0.116,0.005-0.174,0.016c-0.075,0.013-0.146,0.035-0.214,0.063l3.185,6.469l7.608,43.146h0l0.173,0.982
		l0.78-0.138l-1.656-9.392c-0.122-0.692,0.006-1.43,0.415-2.047c0.171-0.259,0.378-0.476,0.609-0.65l-4.894-27.752l-4.865-9.883
		C96.765,197.881,96.35,197.544,95.881,197.544"/>
	<polyline fill="#7C7C7D" points="82.406,196.589 78.063,197.354 95.142,294.22 22.208,307.081 22.991,311.526 100.269,297.899 
		82.406,196.589 	"/>
	<path fill="#7C7C7D" d="M396.447,270.827h-6.143c-1.629,0-3.285,0.349-4.855,1.094c-1.57,0.746-2.885,1.809-3.916,3.071
		l-3.895,4.778c-0.934,1.145-1.66,2.488-2.098,3.995c-0.436,1.507-0.543,3.03-0.369,4.496l2.604,21.798
		c0.316,2.654,1.566,5.207,3.723,7.12c2.158,1.914,4.84,2.854,7.514,2.854h8.395c2.674,0,5.355-0.939,7.512-2.854
		c2.156-1.913,3.406-4.466,3.725-7.12l2.621-21.957c0.168-1.422,0.074-2.9-0.332-4.365s-1.086-2.78-1.963-3.912l-3.582-4.617
		c-1.025-1.324-2.357-2.44-3.961-3.227C399.818,271.194,398.119,270.827,396.447,270.827"/>
	<path fill="#7C7C7D" d="M158.415,114.729c2.233,3.394,3.826,7.29,4.577,11.545c2.946,16.712-8.214,32.648-24.925,35.596
		c-1.804,0.318-3.6,0.472-5.371,0.472c-1.306,0-2.599-0.083-3.872-0.246c0.005,0.004,0.011,0.008,0.017,0.012
		c-7.542-0.96-14.402-4.701-19.301-10.325c0.048,0.07,0.097,0.139,0.145,0.209c0.302,0.447,0.614,0.884,0.938,1.313
		c0.129,0.171,0.255,0.344,0.387,0.512c0.39,0.493,0.794,0.972,1.211,1.439c0.162,0.182,0.328,0.358,0.494,0.536
		c0.363,0.388,0.735,0.767,1.118,1.135c0.195,0.189,0.394,0.374,0.595,0.557c0.374,0.341,0.756,0.673,1.146,0.996
		c0.201,0.167,0.403,0.333,0.609,0.495c0.469,0.368,0.946,0.723,1.436,1.063c0.219,0.151,0.441,0.296,0.664,0.441
		c0.368,0.242,0.742,0.477,1.121,0.703c0.261,0.156,0.521,0.312,0.787,0.46c0.465,0.26,0.937,0.506,1.414,0.74
		c0.264,0.131,0.529,0.257,0.797,0.379c0.48,0.221,0.966,0.429,1.457,0.623c0.306,0.122,0.614,0.232,0.924,0.345
		c0.384,0.138,0.771,0.269,1.16,0.392c0.283,0.09,0.565,0.182,0.852,0.262c0.551,0.156,1.108,0.295,1.67,0.422
		c0.305,0.067,0.61,0.127,0.917,0.186c0.418,0.08,0.839,0.15,1.261,0.213c0.209,0.031,0.414,0.078,0.624,0.105l-0.016-0.013
		c1.272,0.163,2.564,0.247,3.87,0.247c1.771,0,3.567-0.154,5.372-0.472c15.673-2.764,26.462-16.953,25.313-32.492l4.94-0.871
		c0.473-0.083,0.913-0.347,1.21-0.771c0.296-0.423,0.394-0.928,0.311-1.4l-0.397-2.255c-0.084-0.473-0.348-0.913-0.771-1.21
		c-0.327-0.229-0.702-0.339-1.073-0.339c-0.11,0-0.219,0.009-0.327,0.028l-4.925,0.868
		C163.532,122.122,161.323,118.092,158.415,114.729"/>
	<path fill="#FFFFFF" d="M326.966,218.236l-0.259-0.035l0.259,0.037V218.236l-0.259-0.035l0.259,0.037
		c0.016-0.083,1.094-7.681,10.083-16.052c2.423-2.257,4.917-5.267,6.835-8.387c0.958-1.561,1.771-3.148,2.353-4.695
		c0.58-1.547,0.934-3.052,0.936-4.471c0-0.854-0.132-1.681-0.44-2.445c-0.457-1.148-1.341-2.124-2.581-2.744
		c-1.24-0.626-2.81-0.935-4.762-0.936c-3.309,0.003-7.758,0.888-13.737,2.927c-8.179,2.792-15.895,4.07-23.048,4.07
		c-19.36-0.01-34.643-9.333-43.947-23.708c-3.444-5.331-5.024-10.368-5.025-15.003c0.006-6.19,2.796-11.756,8.088-16.519
		c5.289-4.752,13.087-8.634,22.918-11.243c0.534-0.142,0.852-0.689,0.709-1.223c-0.142-0.534-0.689-0.852-1.223-0.709
		c-10.049,2.671-18.125,6.649-23.741,11.688c-5.613,5.029-8.757,11.187-8.751,18.007c0,5.098,1.742,10.516,5.345,16.089
		c9.614,14.895,25.606,24.632,45.627,24.622c7.393,0,15.33-1.322,23.695-4.178c5.854-2,10.142-2.823,13.091-2.819
		c2.329-0.001,3.776,0.507,4.597,1.2c0.414,0.35,0.696,0.749,0.892,1.229c0.194,0.479,0.295,1.046,0.295,1.696
		c0.001,1.078-0.283,2.375-0.808,3.768c-1.563,4.187-5.261,9.151-8.679,12.321c-9.537,8.875-10.685,17.09-10.702,17.25
		c-0.073,0.547,0.312,1.05,0.859,1.123S326.893,218.784,326.966,218.236"/>
	<path fill="#FFFFFF" d="M392.281,268.687c0.014-0.06,0.742-3.134,0.742-8.136c0-2.501-0.182-5.483-0.729-8.81
		c-0.495-3.014-0.985-5.963-0.984-8.839c0.004-3.248,0.606-6.382,2.511-9.54c1.907-3.155,5.156-6.36,10.559-9.589
		c7.119-4.255,12.567-10.768,16.229-18.487c3.662-7.722,5.548-16.656,5.549-25.822c-0.001-14.99-5.048-30.625-15.761-42.545
		c-10.709-11.923-27.103-20.062-49.529-20.053c-0.553,0-1,0.448-1,1s0.447,1,1,1c21.947,0.009,37.699,7.899,48.042,19.39
		c10.338,11.495,15.249,26.659,15.248,41.208c0.001,8.892-1.835,17.545-5.355,24.965c-3.522,7.422-8.719,13.606-15.447,17.627
		c-5.595,3.343-9.123,6.761-11.245,10.271c-2.124,3.508-2.802,7.081-2.799,10.574c0.002,3.101,0.519,6.154,1.012,9.163
		c0.526,3.208,0.701,6.082,0.701,8.486c0,2.403-0.175,4.336-0.349,5.661c-0.087,0.663-0.174,1.173-0.237,1.514
		c-0.032,0.17-0.059,0.298-0.076,0.382l-0.02,0.092l-0.006,0.023c-0.128,0.537,0.203,1.077,0.74,1.205
		C391.614,269.556,392.153,269.224,392.281,268.687"/>
	<polyline fill="#8BCEDA" points="95.142,294.22 17.864,307.847 0,206.534 77.279,192.909 95.142,294.22 	"/>
	<path fill="#456A73" d="M14.125,212.706c-0.162,0-0.327,0.014-0.492,0.043c-1.529,0.27-2.551,1.729-2.281,3.258
		c0.059,0.332,0.173,0.64,0.332,0.917c0.199-1.132,1.085-2.073,2.283-2.284c0.165-0.029,0.33-0.043,0.492-0.043
		c1.014,0,1.94,0.55,2.435,1.408c0.055-0.314,0.058-0.643-0.001-0.975C16.652,213.666,15.464,212.706,14.125,212.706
		 M20.745,211.538c-0.162,0-0.326,0.014-0.491,0.043c-1.531,0.27-2.553,1.729-2.282,3.259c0.059,0.332,0.173,0.64,0.332,0.916
		c0.199-1.133,1.085-2.073,2.283-2.284c0.165-0.029,0.329-0.043,0.491-0.043c1.014,0,1.94,0.55,2.435,1.409
		c0.055-0.314,0.058-0.643-0.001-0.975C23.271,212.498,22.084,211.538,20.745,211.538 M27.364,210.371
		c-0.162,0-0.326,0.014-0.491,0.043c-1.53,0.271-2.551,1.729-2.281,3.259c0.059,0.332,0.173,0.64,0.332,0.916
		c0.199-1.132,1.085-2.072,2.283-2.283c0.166-0.029,0.331-0.043,0.493-0.043c1.013,0,1.939,0.55,2.434,1.408
		c0.055-0.313,0.057-0.642-0.001-0.974C29.892,211.331,28.704,210.371,27.364,210.371 M33.984,209.204
		c-0.162,0-0.327,0.014-0.492,0.043c-1.529,0.27-2.551,1.729-2.282,3.259c0.059,0.332,0.173,0.64,0.332,0.916
		c0.199-1.133,1.086-2.073,2.283-2.284c0.165-0.029,0.33-0.043,0.492-0.043c1.014,0,1.94,0.55,2.436,1.408
		c0.055-0.314,0.057-0.643-0.001-0.975C36.511,210.164,35.324,209.204,33.984,209.204 M40.604,208.036
		c-0.162,0-0.327,0.014-0.492,0.043c-1.53,0.27-2.551,1.729-2.281,3.26c0.059,0.332,0.173,0.64,0.332,0.916
		c0.199-1.133,1.085-2.073,2.283-2.285c0.165-0.029,0.329-0.043,0.491-0.043c1.014,0,1.94,0.55,2.435,1.409
		c0.055-0.314,0.057-0.642-0.001-0.974C43.131,208.996,41.944,208.036,40.604,208.036 M47.226,206.87
		c-0.163,0-0.327,0.014-0.493,0.043c-1.53,0.27-2.552,1.729-2.281,3.258c0.059,0.332,0.172,0.639,0.331,0.915
		c0.2-1.132,1.085-2.071,2.283-2.282c0.166-0.029,0.331-0.043,0.493-0.043c1.013,0,1.938,0.549,2.433,1.408
		c0.055-0.314,0.057-0.643-0.001-0.974C49.751,207.83,48.564,206.87,47.226,206.87 M53.844,205.702
		c-0.162,0-0.327,0.014-0.492,0.043c-1.529,0.27-2.551,1.729-2.281,3.259c0.059,0.332,0.173,0.641,0.333,0.917
		c0.198-1.133,1.085-2.074,2.283-2.285c0.165-0.029,0.33-0.043,0.492-0.043c1.014,0,1.94,0.55,2.435,1.409
		c0.055-0.314,0.058-0.643-0.001-0.976C56.372,206.662,55.184,205.702,53.844,205.702 M60.464,204.534
		c-0.162,0-0.326,0.014-0.491,0.043c-1.531,0.271-2.552,1.729-2.282,3.26c0.059,0.332,0.173,0.64,0.332,0.916
		c0.199-1.133,1.085-2.073,2.283-2.285c0.165-0.029,0.33-0.043,0.492-0.043c1.014,0,1.939,0.549,2.435,1.409
		c0.055-0.313,0.057-0.642-0.001-0.974C62.991,205.494,61.804,204.534,60.464,204.534 M67.085,203.368
		c-0.163,0-0.328,0.014-0.493,0.043c-1.529,0.27-2.553,1.729-2.281,3.258c0.059,0.332,0.173,0.64,0.332,0.917
		c0.198-1.132,1.084-2.073,2.283-2.285c0.165-0.029,0.329-0.043,0.491-0.043c1.015,0,1.941,0.55,2.436,1.41
		c0.055-0.314,0.058-0.643-0.001-0.976C69.612,204.328,68.426,203.368,67.085,203.368 M75.193,201.263L75.193,201.263l13.688,77.629
		l-8.729,12.467l-59.776,10.541L4.819,213.672l0,0l15.89,90.116l59.775-10.539l8.73-12.467L75.193,201.263"/>
	<path fill="#FFFFFF" d="M4.486,211.782l15.89,90.117l59.776-10.541l8.729-12.467l-14.021-79.519L4.486,211.782 M14.61,218.29
		c-1.53,0.269-2.989-0.752-3.259-2.283c-0.27-1.529,0.752-2.988,2.281-3.258c1.53-0.27,2.99,0.752,3.259,2.281
		C17.162,216.562,16.141,218.02,14.61,218.29 M21.23,217.122c-1.53,0.27-2.989-0.752-3.259-2.282
		c-0.271-1.53,0.751-2.989,2.282-3.259c1.529-0.27,2.988,0.752,3.258,2.282C23.782,215.394,22.76,216.853,21.23,217.122
		 M27.851,215.954c-1.53,0.271-2.989-0.751-3.259-2.281c-0.27-1.53,0.751-2.988,2.281-3.259c1.53-0.27,2.99,0.752,3.259,2.282
		C30.402,214.226,29.381,215.686,27.851,215.954 M34.47,214.788c-1.529,0.27-2.989-0.752-3.259-2.282s0.752-2.989,2.282-3.259
		c1.53-0.27,2.989,0.752,3.259,2.281C37.022,213.059,36,214.519,34.47,214.788 M41.09,213.62c-1.53,0.27-2.989-0.752-3.259-2.281
		c-0.27-1.531,0.751-2.99,2.281-3.26s2.989,0.752,3.259,2.282C43.642,211.892,42.62,213.351,41.09,213.62 M47.709,212.453
		c-1.529,0.27-2.988-0.752-3.258-2.282c-0.271-1.529,0.751-2.988,2.281-3.258c1.529-0.271,2.989,0.751,3.258,2.281
		C50.261,210.724,49.24,212.183,47.709,212.453 M54.331,211.286c-1.531,0.27-2.99-0.752-3.26-2.282s0.752-2.989,2.281-3.259
		c1.531-0.27,2.99,0.752,3.26,2.281C56.881,209.558,55.86,211.017,54.331,211.286 M60.95,210.118
		c-1.53,0.27-2.989-0.751-3.259-2.281s0.751-2.989,2.282-3.26c1.529-0.27,2.988,0.752,3.258,2.282
		C63.501,208.39,62.479,209.849,60.95,210.118 M67.569,208.951c-1.529,0.271-2.988-0.752-3.258-2.282
		c-0.271-1.529,0.752-2.988,2.281-3.258c1.531-0.271,2.99,0.751,3.26,2.281S69.1,208.681,67.569,208.951"/>
	<polyline fill="#7C7C7D" points="88.88,278.892 78.283,280.761 80.15,291.358 88.88,278.892 	"/>
	<polyline fill="#CCCBCC" points="13.229,221.513 69.972,211.509 69.798,210.524 13.055,220.528 	"/>
	<polyline fill="#CCCBCC" points="14.378,228.031 71.122,218.026 70.948,217.042 14.205,227.047 	"/>
	<polyline fill="#CCCBCC" points="15.527,234.55 55.248,227.546 55.074,226.562 15.354,233.565 	"/>
	<polyline fill="#CCCBCC" points="16.677,241.068 56.396,234.064 56.222,233.08 16.503,240.084 	"/>
	<polyline fill="#CCCBCC" points="17.827,247.587 57.546,240.583 57.373,239.599 17.653,246.603 	"/>
	<polyline fill="#CCCBCC" points="18.976,254.104 75.719,244.101 75.545,243.116 18.802,253.12 	"/>
	<polyline fill="#CCCBCC" points="20.125,260.623 76.87,250.618 76.696,249.634 19.951,259.639 	"/>
	<polyline fill="#CCCBCC" points="21.274,267.142 78.018,257.137 77.844,256.152 21.1,266.157 	"/>
	<polyline fill="#CCCBCC" points="22.424,273.66 79.167,263.655 78.993,262.671 22.25,272.676 	"/>
	<polygon fill="#CCCBCC" points="74.482,237.089 74.395,236.597 60.544,239.039 58.419,226.987 71.777,224.631 73.99,237.176 
		74.482,237.089 74.395,236.597 74.482,237.089 74.974,237.002 72.589,223.473 57.261,226.175 59.732,240.197 75.061,237.495 
		74.974,237.002 	"/>
	
		<rect x="24.19" y="277.007" transform="matrix(0.9848 -0.1738 0.1738 0.9848 -48.8486 8.9642)" fill="#EE5823" width="5.159" height="12.897"/>
	
		<rect x="32.97" y="280.89" transform="matrix(0.9848 -0.1737 0.1737 0.9848 -48.9126 10.5051)" fill="#F4AF17" width="5.16" height="7.509"/>
	
		<rect x="41.13" y="277.715" transform="matrix(0.9848 -0.1735 0.1735 0.9848 -48.3317 11.8691)" fill="#143E5F" width="5.16" height="9.231"/>
	
		<rect x="49.124" y="272.611" transform="matrix(0.9848 -0.1738 0.1738 0.9848 -47.7097 13.2316)" fill="#CCCBCC" width="5.159" height="12.897"/>
	<path fill="#444849" d="M15.668,213.229c0.189,1.076-0.506,2.105-1.546,2.289s-2.047-0.546-2.237-1.621l-1.598-9.063
		c-0.19-1.075,0.506-2.105,1.546-2.289c1.041-0.184,2.047,0.546,2.237,1.622L15.668,213.229z"/>
	<path fill="#444849" d="M22.289,212.063c0.189,1.074-0.506,2.104-1.546,2.288c-1.041,0.184-2.047-0.546-2.237-1.622l-1.598-9.063
		c-0.19-1.076,0.506-2.105,1.546-2.289c1.041-0.184,2.047,0.546,2.237,1.621L22.289,212.063z"/>
	<path fill="#444849" d="M28.908,210.896c0.189,1.076-0.505,2.105-1.545,2.289c-1.041,0.184-2.047-0.547-2.237-1.622l-1.598-9.063
		c-0.19-1.075,0.506-2.105,1.546-2.288c1.041-0.184,2.047,0.546,2.237,1.622L28.908,210.896z"/>
	<path fill="#444849" d="M35.529,209.729c0.189,1.075-0.506,2.105-1.547,2.289c-1.041,0.183-2.047-0.546-2.236-1.622l-1.598-9.064
		c-0.19-1.074,0.506-2.104,1.546-2.288s2.047,0.547,2.237,1.622L35.529,209.729z"/>
	<path fill="#444849" d="M42.149,208.562c0.189,1.075-0.507,2.104-1.547,2.288c-1.041,0.184-2.047-0.546-2.236-1.622l-1.599-9.063
		c-0.189-1.076,0.507-2.105,1.548-2.289c1.04-0.184,2.046,0.546,2.234,1.621L42.149,208.562z"/>
	<path fill="#444849" d="M48.768,207.394c0.19,1.076-0.506,2.105-1.547,2.289c-1.039,0.184-2.046-0.547-2.235-1.622l-1.598-9.063
		c-0.19-1.075,0.505-2.105,1.546-2.289c1.04-0.183,2.047,0.547,2.236,1.622L48.768,207.394z"/>
	<path fill="#444849" d="M55.389,206.226c0.189,1.076-0.507,2.106-1.547,2.289c-1.041,0.184-2.047-0.546-2.236-1.621l-1.598-9.063
		c-0.189-1.075,0.505-2.105,1.547-2.288c1.04-0.184,2.045,0.546,2.234,1.621L55.389,206.226z"/>
	<path fill="#444849" d="M62.008,205.06c0.189,1.075-0.506,2.105-1.547,2.289c-1.039,0.183-2.047-0.547-2.236-1.623l-1.598-9.063
		c-0.189-1.076,0.506-2.105,1.547-2.289s2.047,0.547,2.236,1.622L62.008,205.06z"/>
	<path fill="#444849" d="M68.629,203.892c0.189,1.076-0.508,2.105-1.547,2.289c-1.041,0.184-2.047-0.547-2.237-1.622l-1.597-9.063
		c-0.189-1.075,0.506-2.106,1.546-2.289c1.04-0.184,2.046,0.546,2.235,1.622L68.629,203.892z"/>
	<path fill="#FFFFFF" d="M327.191,289.487c-0.955,5.417-6.168,9.067-11.584,8.112l-169.825-29.944
		c-5.417-0.955-9.067-6.168-8.111-11.584l11.257-63.84c0.956-5.417,6.168-9.067,11.585-8.112l169.823,29.945
		c5.416,0.955,9.066,6.168,8.111,11.584L327.191,289.487z"/>
	<path fill="#143E5F" d="M176.537,201.6c-0.191,1.083-1.233,1.813-2.317,1.623l-4.936-0.87c-1.083-0.191-1.813-1.233-1.623-2.317
		l0.871-4.937c0.191-1.083,1.233-1.813,2.317-1.622l4.935,0.87c1.083,0.191,1.813,1.234,1.623,2.317L176.537,201.6z"/>
	<path fill="#143E5F" d="M188.34,203.681c-0.191,1.083-1.233,1.813-2.317,1.622l-4.936-0.87c-1.083-0.191-1.813-1.234-1.623-2.317
		l0.871-4.936c0.191-1.083,1.233-1.813,2.317-1.622l4.936,0.87c1.083,0.191,1.813,1.234,1.623,2.317L188.34,203.681z"/>
	<path fill="#143E5F" d="M200.144,205.762c-0.191,1.083-1.233,1.813-2.317,1.623l-4.936-0.87c-1.083-0.191-1.813-1.233-1.623-2.317
		l0.87-4.936c0.191-1.083,1.233-1.813,2.317-1.623l4.936,0.87c1.083,0.191,1.813,1.233,1.623,2.317L200.144,205.762z"/>
	<path fill="#143E5F" d="M211.947,207.844c-0.191,1.083-1.233,1.813-2.317,1.623l-4.938-0.871c-1.083-0.191-1.813-1.233-1.623-2.317
		l0.871-4.936c0.191-1.083,1.233-1.813,2.317-1.623l4.937,0.87c1.083,0.191,1.813,1.233,1.623,2.317L211.947,207.844z"/>
	<path fill="#143E5F" d="M223.751,209.924c-0.191,1.083-1.233,1.813-2.317,1.623l-4.937-0.87c-1.083-0.191-1.813-1.233-1.623-2.317
		l0.87-4.936c0.191-1.083,1.233-1.813,2.317-1.623l4.937,0.871c1.083,0.191,1.813,1.233,1.623,2.317L223.751,209.924z"/>
	<path fill="#143E5F" d="M235.553,212.006c-0.191,1.083-1.233,1.813-2.317,1.623l-4.937-0.871c-1.083-0.191-1.813-1.233-1.623-2.317
		l0.871-4.936c0.191-1.083,1.233-1.813,2.317-1.623l4.937,0.871c1.083,0.191,1.813,1.233,1.623,2.317L235.553,212.006z"/>
	<path fill="#143E5F" d="M247.356,214.088c-0.191,1.083-1.233,1.813-2.317,1.622l-4.937-0.871c-1.083-0.191-1.813-1.234-1.623-2.317
		l0.87-4.936c0.191-1.083,1.233-1.813,2.317-1.623l4.937,0.87c1.083,0.191,1.813,1.233,1.623,2.317L247.356,214.088z"/>
	<path fill="#143E5F" d="M259.158,216.168c-0.191,1.083-1.233,1.813-2.317,1.623l-4.936-0.87c-1.083-0.191-1.813-1.233-1.623-2.317
		l0.871-4.937c0.191-1.083,1.233-1.813,2.317-1.622l4.936,0.87c1.083,0.191,1.813,1.234,1.623,2.317L259.158,216.168z"/>
	<path fill="#143E5F" d="M270.962,218.248c-0.191,1.083-1.233,1.813-2.317,1.623l-4.937-0.87c-1.083-0.191-1.813-1.233-1.623-2.317
		l0.87-4.936c0.191-1.083,1.233-1.813,2.317-1.622l4.937,0.871c1.083,0.191,1.813,1.234,1.623,2.317L270.962,218.248z"/>
	<path fill="#143E5F" d="M282.765,220.33c-0.191,1.083-1.233,1.813-2.317,1.623l-4.937-0.87c-1.083-0.191-1.813-1.233-1.623-2.317
		l0.871-4.936c0.191-1.083,1.233-1.813,2.317-1.623l4.937,0.87c1.083,0.191,1.813,1.233,1.623,2.317L282.765,220.33z"/>
	<path fill="#143E5F" d="M294.569,222.412c-0.191,1.083-1.233,1.813-2.317,1.623l-4.937-0.87c-1.083-0.191-1.813-1.233-1.623-2.317
		l0.87-4.938c0.191-1.083,1.233-1.813,2.317-1.623l4.937,0.871c1.083,0.191,1.813,1.233,1.623,2.317L294.569,222.412z"/>
	<path fill="#143E5F" d="M306.371,224.492c-0.191,1.083-1.234,1.813-2.317,1.623l-4.936-0.87c-1.083-0.191-1.813-1.233-1.622-2.317
		l0.871-4.936c0.191-1.083,1.234-1.813,2.317-1.622l4.936,0.87c1.083,0.191,1.813,1.234,1.622,2.317L306.371,224.492z"/>
	<path fill="#143E5F" d="M318.176,226.573c-0.191,1.083-1.234,1.813-2.317,1.623l-4.936-0.87c-1.083-0.191-1.813-1.233-1.622-2.317
		l0.869-4.935c0.191-1.083,1.234-1.813,2.317-1.623l4.936,0.87c1.083,0.191,1.813,1.233,1.622,2.317L318.176,226.573z"/>
	<path fill="#143E5F" d="M329.977,228.656c-0.191,1.083-1.234,1.813-2.317,1.622l-4.934-0.87c-1.083-0.191-1.813-1.234-1.622-2.317
		l0.869-4.937c0.191-1.083,1.234-1.813,2.317-1.623l4.936,0.87c1.083,0.191,1.813,1.233,1.622,2.317L329.977,228.656z"/>
	<path fill="#143E5F" d="M175.147,213.738c-0.191,1.083-1.233,1.813-2.317,1.622l-4.936-0.87c-1.083-0.191-1.813-1.234-1.623-2.317
		l0.87-4.937c0.191-1.083,1.233-1.813,2.317-1.623l4.936,0.87c1.083,0.191,1.813,1.233,1.623,2.317L175.147,213.738z"/>
	<path fill="#143E5F" d="M186.895,215.809c-0.191,1.083-1.233,1.813-2.317,1.623l-4.937-0.87c-1.083-0.191-1.813-1.233-1.623-2.317
		l0.87-4.937c0.191-1.083,1.233-1.813,2.317-1.623l4.937,0.871c1.083,0.191,1.813,1.233,1.623,2.317L186.895,215.809z"/>
	<path fill="#143E5F" d="M198.642,217.881c-0.191,1.083-1.233,1.813-2.317,1.622l-4.937-0.871c-1.083-0.191-1.813-1.234-1.623-2.317
		l0.871-4.936c0.191-1.083,1.233-1.813,2.317-1.623l4.936,0.87c1.083,0.191,1.813,1.233,1.623,2.317L198.642,217.881z"/>
	<path fill="#143E5F" d="M210.389,219.951c-0.191,1.083-1.233,1.813-2.317,1.623l-4.937-0.87c-1.083-0.191-1.813-1.233-1.623-2.317
		l0.871-4.938c0.191-1.083,1.233-1.813,2.317-1.622l4.936,0.871c1.083,0.191,1.813,1.234,1.623,2.317L210.389,219.951z"/>
	<path fill="#143E5F" d="M222.136,222.023c-0.191,1.083-1.233,1.813-2.317,1.623l-4.936-0.87c-1.083-0.191-1.813-1.233-1.623-2.317
		l0.87-4.938c0.191-1.083,1.233-1.813,2.317-1.623l4.936,0.87c1.083,0.191,1.813,1.233,1.623,2.317L222.136,222.023z"/>
	<path fill="#143E5F" d="M233.883,224.094c-0.191,1.083-1.233,1.813-2.317,1.623l-4.937-0.87c-1.083-0.191-1.813-1.233-1.623-2.317
		l0.871-4.937c0.191-1.083,1.233-1.813,2.317-1.622l4.936,0.87c1.083,0.191,1.813,1.234,1.623,2.317L233.883,224.094z"/>
	<path fill="#143E5F" d="M245.63,226.166c-0.191,1.083-1.233,1.813-2.317,1.623l-4.937-0.871c-1.083-0.191-1.813-1.233-1.623-2.317
		l0.871-4.937c0.191-1.083,1.233-1.813,2.317-1.622l4.936,0.87c1.083,0.191,1.813,1.234,1.623,2.317L245.63,226.166z"/>
	<path fill="#143E5F" d="M257.377,228.237c-0.191,1.083-1.233,1.813-2.317,1.622l-4.936-0.87c-1.083-0.191-1.813-1.234-1.623-2.317
		l0.871-4.937c0.191-1.083,1.233-1.813,2.317-1.622l4.936,0.87c1.083,0.191,1.813,1.234,1.623,2.317L257.377,228.237z"/>
	<path fill="#143E5F" d="M280.871,232.379c-0.191,1.083-1.233,1.813-2.317,1.623l-16.684-2.94c-1.083-0.191-1.813-1.233-1.623-2.317
		l0.871-4.938c0.191-1.083,1.233-1.813,2.317-1.623l16.684,2.942c1.083,0.191,1.813,1.233,1.623,2.317L280.871,232.379z"/>
	<path fill="#143E5F" d="M292.618,234.451c-0.191,1.083-1.233,1.813-2.317,1.623l-4.937-0.87c-1.083-0.191-1.813-1.233-1.623-2.317
		l0.871-4.938c0.191-1.083,1.233-1.813,2.317-1.623l4.936,0.87c1.083,0.191,1.813,1.233,1.623,2.317L292.618,234.451z"/>
	<path fill="#143E5F" d="M304.365,236.521c-0.191,1.083-1.234,1.813-2.317,1.623l-4.935-0.87c-1.083-0.191-1.813-1.233-1.623-2.317
		l0.871-4.936c0.191-1.083,1.233-1.813,2.317-1.623l4.936,0.87c1.083,0.191,1.813,1.233,1.622,2.317L304.365,236.521z"/>
	<path fill="#143E5F" d="M316.113,238.594c-0.191,1.083-1.234,1.813-2.317,1.622l-4.936-0.87c-1.083-0.191-1.813-1.234-1.622-2.317
		l0.869-4.937c0.191-1.083,1.234-1.813,2.317-1.623l4.938,0.87c1.083,0.191,1.813,1.233,1.622,2.317L316.113,238.594z"/>
	<path fill="#143E5F" d="M327.859,240.665c-0.191,1.083-1.234,1.813-2.317,1.622l-4.936-0.87c-1.083-0.191-1.813-1.234-1.622-2.317
		l0.871-4.936c0.191-1.083,1.234-1.813,2.317-1.623l4.936,0.87c1.083,0.191,1.813,1.233,1.622,2.317L327.859,240.665z"/>
	<path fill="#143E5F" d="M181.775,227.289c-0.191,1.083-1.233,1.813-2.317,1.622l-4.937-0.871c-1.083-0.191-1.813-1.234-1.623-2.317
		l0.871-4.937c0.191-1.083,1.233-1.813,2.317-1.623l4.937,0.871c1.083,0.191,1.813,1.233,1.623,2.317L181.775,227.289z"/>
	<path fill="#143E5F" d="M193.652,229.383c-0.191,1.083-1.233,1.813-2.317,1.622l-4.936-0.87c-1.083-0.191-1.813-1.234-1.623-2.317
		l0.87-4.937c0.191-1.083,1.233-1.813,2.317-1.623l4.936,0.87c1.083,0.191,1.813,1.233,1.623,2.317L193.652,229.383z"/>
	<path fill="#143E5F" d="M205.399,231.454c-0.191,1.083-1.233,1.813-2.317,1.622l-4.936-0.87c-1.083-0.191-1.813-1.234-1.623-2.317
		l0.87-4.937c0.191-1.083,1.233-1.813,2.317-1.623l4.937,0.871c1.083,0.191,1.813,1.233,1.623,2.317L205.399,231.454z"/>
	<path fill="#143E5F" d="M217.146,233.525c-0.191,1.083-1.233,1.813-2.317,1.623l-4.936-0.87c-1.083-0.191-1.813-1.233-1.623-2.317
		l0.87-4.938c0.191-1.083,1.233-1.813,2.317-1.623l4.936,0.87c1.083,0.191,1.813,1.233,1.623,2.317L217.146,233.525z"/>
	<path fill="#143E5F" d="M228.894,235.598c-0.191,1.083-1.233,1.813-2.317,1.622l-4.936-0.871c-1.083-0.191-1.813-1.234-1.623-2.317
		l0.87-4.938c0.191-1.083,1.233-1.813,2.317-1.622l4.936,0.871c1.083,0.191,1.813,1.234,1.623,2.317L228.894,235.598z"/>
	<path fill="#143E5F" d="M240.641,237.668c-0.191,1.083-1.233,1.813-2.317,1.623l-4.936-0.87c-1.083-0.191-1.813-1.233-1.623-2.317
		l0.87-4.938c0.191-1.083,1.233-1.813,2.317-1.623l4.936,0.87c1.083,0.191,1.813,1.233,1.623,2.317L240.641,237.668z"/>
	<path fill="#143E5F" d="M252.389,239.74c-0.191,1.083-1.233,1.813-2.317,1.622l-4.937-0.871c-1.083-0.191-1.813-1.234-1.623-2.317
		l0.87-4.937c0.191-1.083,1.233-1.813,2.317-1.623l4.937,0.871c1.083,0.191,1.813,1.233,1.623,2.317L252.389,239.74z"/>
	<path fill="#143E5F" d="M290.501,246.46c-0.191,1.083-1.233,1.813-2.317,1.623l-4.937-0.871c-1.083-0.191-1.813-1.233-1.623-2.317
		l0.871-4.937c0.191-1.083,1.233-1.813,2.317-1.622l4.936,0.87c1.083,0.191,1.813,1.234,1.623,2.317L290.501,246.46z"/>
	<path fill="#143E5F" d="M302.248,248.531c-0.191,1.083-1.233,1.813-2.317,1.623l-4.936-0.871c-1.083-0.191-1.813-1.233-1.623-2.317
		l0.87-4.937c0.191-1.083,1.233-1.813,2.317-1.623l4.936,0.87c1.083,0.191,1.813,1.233,1.623,2.317L302.248,248.531z"/>
	<path fill="#143E5F" d="M313.995,250.604c-0.19,1.083-1.233,1.813-2.316,1.622l-4.936-0.87c-1.083-0.191-1.813-1.234-1.623-2.317
		l0.87-4.938c0.191-1.083,1.234-1.813,2.317-1.622l4.936,0.87c1.083,0.191,1.813,1.234,1.623,2.317L313.995,250.604z"/>
	<path fill="#143E5F" d="M185.53,240.332c-0.191,1.083-1.233,1.813-2.317,1.623l-4.936-0.87c-1.083-0.191-1.813-1.233-1.623-2.317
		l0.87-4.937c0.191-1.083,1.233-1.813,2.317-1.623l4.937,0.871c1.083,0.191,1.813,1.233,1.623,2.317L185.53,240.332z"/>
	<path fill="#143E5F" d="M197.278,242.404c-0.191,1.083-1.233,1.813-2.317,1.623l-4.936-0.87c-1.083-0.191-1.813-1.233-1.623-2.317
		l0.871-4.938c0.191-1.083,1.233-1.813,2.317-1.623l4.935,0.87c1.083,0.191,1.813,1.233,1.623,2.317L197.278,242.404z"/>
	<path fill="#143E5F" d="M209.026,244.476c-0.191,1.083-1.233,1.813-2.317,1.623l-4.937-0.871c-1.083-0.191-1.813-1.233-1.623-2.317
		l0.87-4.936c0.191-1.083,1.233-1.813,2.317-1.623l4.937,0.87c1.083,0.191,1.813,1.233,1.623,2.317L209.026,244.476z"/>
	<path fill="#143E5F" d="M220.772,246.547c-0.191,1.083-1.233,1.813-2.317,1.623l-4.937-0.87c-1.083-0.191-1.813-1.233-1.623-2.317
		l0.87-4.938c0.191-1.083,1.233-1.813,2.317-1.623l4.937,0.87c1.083,0.191,1.813,1.233,1.623,2.317L220.772,246.547z"/>
	<path fill="#143E5F" d="M232.52,248.617c-0.191,1.083-1.233,1.813-2.317,1.623l-4.937-0.87c-1.083-0.191-1.813-1.233-1.623-2.317
		l0.87-4.937c0.191-1.083,1.233-1.813,2.317-1.623l4.937,0.871c1.083,0.191,1.813,1.233,1.623,2.317L232.52,248.617z"/>
	<path fill="#143E5F" d="M244.267,250.689c-0.191,1.083-1.233,1.813-2.317,1.622l-4.935-0.87c-1.083-0.191-1.813-1.234-1.623-2.317
		l0.87-4.937c0.191-1.083,1.233-1.813,2.317-1.622l4.935,0.87c1.083,0.191,1.813,1.234,1.623,2.317L244.267,250.689z"/>
	<path fill="#143E5F" d="M256.014,252.761c-0.191,1.083-1.233,1.813-2.317,1.622l-4.936-0.87c-1.083-0.191-1.813-1.234-1.623-2.317
		l0.87-4.936c0.191-1.083,1.233-1.813,2.317-1.623l4.936,0.87c1.083,0.191,1.813,1.233,1.623,2.317L256.014,252.761z"/>
	<path fill="#143E5F" d="M258.447,233.686c-1.083-0.191-2.126,0.539-2.317,1.623l-0.87,4.938c-0.191,1.083,0.539,2.126,1.623,2.317
		l1.804,0.317c1.083,0.191,1.813,1.233,1.623,2.317l-1.423,8.07c-0.191,1.083,0.539,2.126,1.623,2.317l13.812,2.435
		c1.083,0.191,2.126-0.539,2.317-1.623l2.987-16.945c0.191-1.083-0.539-2.126-1.623-2.317L258.447,233.686z"/>
	<path fill="#143E5F" d="M288.384,258.469c-0.191,1.083-1.233,1.813-2.317,1.623l-4.937-0.87c-1.083-0.191-1.813-1.233-1.623-2.317
		l0.87-4.938c0.191-1.083,1.233-1.813,2.317-1.623l4.937,0.87c1.083,0.191,1.813,1.233,1.623,2.317L288.384,258.469z"/>
	<path fill="#143E5F" d="M300.13,260.539c-0.191,1.083-1.233,1.813-2.317,1.623l-4.936-0.87c-1.083-0.191-1.813-1.233-1.623-2.317
		l0.87-4.937c0.191-1.083,1.233-1.813,2.317-1.623l4.936,0.871c1.083,0.191,1.813,1.233,1.623,2.317L300.13,260.539z"/>
	<path fill="#143E5F" d="M311.878,262.611c-0.19,1.083-1.233,1.813-2.316,1.622l-4.936-0.871c-1.083-0.191-1.813-1.234-1.623-2.317
		l0.87-4.936c0.191-1.083,1.233-1.813,2.317-1.623l4.936,0.87c1.083,0.191,1.813,1.233,1.623,2.317L311.878,262.611z"/>
	<path fill="#143E5F" d="M323.625,264.683c-0.191,1.083-1.234,1.813-2.317,1.622l-4.936-0.87c-1.083-0.191-1.813-1.234-1.622-2.317
		l2.988-16.945c0.191-1.083,1.234-1.813,2.317-1.623l4.934,0.87c1.083,0.191,1.813,1.233,1.622,2.317L323.625,264.683z"/>
	<path fill="#143E5F" d="M170.23,250.018c-0.191,1.083-1.233,1.813-2.317,1.622l-4.936-0.87c-1.083-0.191-1.813-1.234-1.623-2.317
		l0.87-4.938c0.191-1.083,1.233-1.813,2.317-1.623l4.937,0.871c1.083,0.191,1.813,1.233,1.623,2.317L170.23,250.018z"/>
	<path fill="#143E5F" d="M181.978,252.088c-0.191,1.083-1.233,1.813-2.317,1.623l-4.935-0.87c-1.083-0.191-1.813-1.233-1.623-2.317
		l0.871-4.938c0.191-1.083,1.233-1.813,2.317-1.622l4.935,0.87c1.083,0.191,1.813,1.234,1.623,2.317L181.978,252.088z"/>
	<path fill="#143E5F" d="M193.726,254.16c-0.191,1.083-1.233,1.813-2.317,1.622l-4.936-0.87c-1.083-0.191-1.813-1.234-1.623-2.317
		l0.87-4.937c0.191-1.083,1.233-1.813,2.317-1.623l4.937,0.87c1.083,0.191,1.813,1.233,1.623,2.317L193.726,254.16z"/>
	<path fill="#143E5F" d="M205.473,256.23c-0.191,1.083-1.233,1.813-2.317,1.623l-4.936-0.87c-1.083-0.191-1.813-1.233-1.623-2.317
		l0.87-4.937c0.191-1.083,1.233-1.813,2.317-1.623l4.937,0.871c1.083,0.191,1.813,1.233,1.623,2.317L205.473,256.23z"/>
	<path fill="#143E5F" d="M217.22,258.303c-0.191,1.083-1.233,1.813-2.317,1.623l-4.937-0.87c-1.083-0.191-1.813-1.233-1.623-2.317
		l0.87-4.938c0.191-1.083,1.233-1.813,2.317-1.623l4.937,0.87c1.083,0.191,1.813,1.233,1.623,2.317L217.22,258.303z"/>
	<path fill="#143E5F" d="M228.966,260.373c-0.191,1.083-1.233,1.813-2.317,1.623l-4.935-0.87c-1.083-0.191-1.813-1.233-1.623-2.317
		l0.87-4.936c0.191-1.083,1.233-1.813,2.317-1.623l4.936,0.87c1.083,0.191,1.813,1.233,1.623,2.317L228.966,260.373z"/>
	<path fill="#143E5F" d="M241.105,262.514c-0.191,1.083-1.233,1.813-2.317,1.623l-4.937-0.87c-1.083-0.191-1.813-1.233-1.623-2.317
		l0.871-4.938c0.191-1.083,1.233-1.813,2.317-1.623l4.937,0.871c1.083,0.191,1.813,1.233,1.623,2.317L241.105,262.514z"/>
	<path fill="#143E5F" d="M274.519,268.405c-0.191,1.083-1.233,1.813-2.317,1.623l-26.276-4.633
		c-1.083-0.191-1.813-1.233-1.623-2.317l0.871-4.937c0.191-1.083,1.233-1.813,2.317-1.623l26.276,4.633
		c1.083,0.191,1.813,1.233,1.623,2.317L274.519,268.405z"/>
	<path fill="#143E5F" d="M286.267,270.477c-0.191,1.083-1.233,1.813-2.317,1.623l-4.937-0.87c-1.083-0.191-1.813-1.233-1.623-2.317
		l0.87-4.937c0.191-1.083,1.233-1.813,2.317-1.623l4.937,0.871c1.083,0.191,1.813,1.233,1.623,2.317L286.267,270.477z"/>
	<path fill="#143E5F" d="M298.013,272.549c-0.191,1.083-1.233,1.813-2.317,1.623l-4.936-0.871c-1.083-0.191-1.813-1.233-1.623-2.317
		l0.87-4.937c0.191-1.083,1.233-1.813,2.317-1.623l4.936,0.87c1.083,0.191,1.813,1.233,1.623,2.317L298.013,272.549z"/>
	<path fill="#143E5F" d="M309.761,274.62c-0.19,1.083-1.233,1.813-2.316,1.623l-4.938-0.871c-1.083-0.191-1.813-1.233-1.623-2.317
		l0.87-4.938c0.191-1.083,1.233-1.813,2.317-1.623l4.938,0.871c1.083,0.191,1.813,1.233,1.623,2.317L309.761,274.62z"/>
	<path fill="#143E5F" d="M165.894,261.635c-0.191,1.083-1.233,1.813-2.317,1.623l-4.936-0.87c-1.083-0.191-1.813-1.233-1.622-2.317
		l0.871-4.938c0.191-1.083,1.234-1.813,2.317-1.623l4.935,0.87c1.083,0.191,1.813,1.233,1.623,2.317L165.894,261.635z"/>
	<path fill="#143E5F" d="M164.734,199.519c-0.191,1.083-1.233,1.813-2.317,1.622l-4.936-0.87c-1.083-0.191-1.813-1.234-1.623-2.317
		l0.87-4.936c0.191-1.083,1.233-1.813,2.317-1.623l4.937,0.87c1.083,0.191,1.813,1.233,1.623,2.317L164.734,199.519z"/>
	<path fill="#143E5F" d="M162.617,211.528c-0.191,1.083-1.233,1.813-2.317,1.622l-4.936-0.87c-1.083-0.191-1.813-1.234-1.623-2.317
		l0.87-4.937c0.191-1.083,1.233-1.813,2.317-1.623l4.937,0.871c1.083,0.191,1.813,1.233,1.623,2.317L162.617,211.528z"/>
	<path fill="#143E5F" d="M170.028,225.217c-0.191,1.083-1.234,1.813-2.317,1.623l-14.463-2.55c-1.083-0.191-1.813-1.233-1.623-2.317
		l0.87-4.938c0.191-1.083,1.233-1.813,2.317-1.623l14.465,2.551c1.083,0.191,1.813,1.233,1.622,2.317L170.028,225.217z"/>
	<path fill="#143E5F" d="M173.784,238.262c-0.191,1.083-1.233,1.813-2.317,1.623l-20.338-3.587
		c-1.083-0.191-1.813-1.233-1.623-2.317l0.871-4.937c0.191-1.083,1.233-1.813,2.317-1.623l20.337,3.586
		c1.083,0.191,1.813,1.233,1.623,2.317L173.784,238.262z"/>
	<path fill="#143E5F" d="M158.157,247.888c-0.191,1.083-1.233,1.813-2.317,1.623l-6.829-1.204c-1.083-0.191-1.813-1.233-1.623-2.317
		l0.871-4.937c0.191-1.083,1.233-1.813,2.317-1.623l6.829,1.204c1.083,0.191,1.813,1.233,1.623,2.317L158.157,247.888z"/>
	<path fill="#143E5F" d="M154.146,259.563c-0.191,1.083-1.233,1.813-2.317,1.622l-4.936-0.87c-1.083-0.191-1.813-1.234-1.623-2.317
		l0.871-4.938c0.191-1.083,1.233-1.813,2.317-1.622l4.936,0.871c1.083,0.191,1.813,1.234,1.623,2.317L154.146,259.563z"/>
	<path fill="#143E5F" d="M223.429,271.779c-0.191,1.083-1.233,1.813-2.317,1.623l-50.725-8.944
		c-1.083-0.191-1.813-1.233-1.622-2.317l0.871-4.938c0.191-1.083,1.234-1.813,2.317-1.623l50.723,8.945
		c1.083,0.191,1.813,1.233,1.623,2.317L223.429,271.779z"/>
	<path fill="#143E5F" d="M247.341,275.996c-0.191,1.083-1.233,1.813-2.317,1.623l-4.937-0.871c-1.083-0.191-1.813-1.233-1.623-2.317
		l0.871-4.937c0.191-1.083,1.233-1.813,2.317-1.623l4.937,0.87c1.083,0.191,1.813,1.233,1.623,2.317L247.341,275.996z"/>
	<path fill="#143E5F" d="M235.594,273.924c-0.191,1.083-1.233,1.813-2.317,1.623l-4.937-0.87c-1.083-0.191-1.813-1.233-1.623-2.317
		l0.871-4.937c0.191-1.083,1.233-1.813,2.317-1.623l4.937,0.871c1.083,0.191,1.813,1.233,1.623,2.317L235.594,273.924z"/>
	<path fill="#143E5F" d="M266.991,274.087c-0.164,0.933-1.185,1.54-2.268,1.349l-4.938-0.871c-1.083-0.191-1.835-1.11-1.67-2.042
		s1.186-1.539,2.269-1.348l4.936,0.87C266.403,272.235,267.155,273.155,266.991,274.087z"/>
	<path fill="#143E5F" d="M266.036,279.505c-0.171,0.97-1.197,1.607-2.281,1.417l-4.937-0.87c-1.083-0.191-1.83-1.141-1.659-2.111
		s1.197-1.607,2.281-1.417l4.937,0.87C265.461,277.585,266.207,278.535,266.036,279.505z"/>
	<path fill="#143E5F" d="M272.795,280.484c-0.191,1.083-1.233,1.813-2.317,1.622l-0.983-0.174c-1.083-0.191-1.813-1.234-1.623-2.317
		l0.871-4.937c0.191-1.083,1.233-1.813,2.317-1.622l0.982,0.173c1.083,0.191,1.813,1.234,1.623,2.317L272.795,280.484z"/>
	<path fill="#143E5F" d="M255.361,277.41c-0.191,1.083-1.233,1.813-2.317,1.623l-0.981-0.173c-1.083-0.191-1.813-1.233-1.623-2.317
		l0.87-4.938c0.191-1.083,1.233-1.813,2.317-1.622l0.982,0.173c1.083,0.191,1.813,1.234,1.623,2.317L255.361,277.41z"/>
	<path fill="#143E5F" d="M295.896,284.558c-0.191,1.083-1.233,1.813-2.317,1.623l-16.684-2.942
		c-1.083-0.191-1.813-1.233-1.622-2.317l0.871-4.937c0.191-1.083,1.234-1.813,2.317-1.623l16.682,2.942
		c1.083,0.191,1.813,1.233,1.623,2.317L295.896,284.558z"/>
	<path fill="#143E5F" d="M307.644,286.629c-0.19,1.083-1.233,1.813-2.316,1.623l-4.938-0.87c-1.083-0.191-1.813-1.233-1.622-2.317
		l0.871-4.938c0.191-1.083,1.234-1.813,2.317-1.623l4.936,0.87c1.083,0.191,1.813,1.233,1.623,2.317L307.644,286.629z"/>
	<path fill="#143E5F" d="M319.391,288.701c-0.191,1.083-1.234,1.813-2.317,1.622l-4.936-0.87c-1.083-0.191-1.813-1.234-1.622-2.317
		l2.986-16.946c0.191-1.083,1.234-1.813,2.317-1.622l4.936,0.87c1.083,0.191,1.813,1.234,1.622,2.317L319.391,288.701z"/>
	<path fill="#FFFFFF" d="M406.732,307.687c-0.316,2.654-1.566,5.207-3.725,7.121c-2.154,1.913-4.838,2.853-7.512,2.853h-8.395
		c-2.672,0-5.355-0.939-7.512-2.853c-2.156-1.914-3.408-4.467-3.723-7.121l-2.604-21.797c-0.174-1.466-0.068-2.989,0.369-4.496
		c0.438-1.508,1.164-2.852,2.098-3.994l3.895-4.779c1.029-1.264,2.346-2.325,3.916-3.07c1.57-0.746,3.225-1.095,4.855-1.095h6.141
		c1.674,0,3.373,0.368,4.979,1.153c1.605,0.787,2.938,1.904,3.963,3.227l3.582,4.618c0.877,1.132,1.557,2.446,1.963,3.912
		s0.5,2.942,0.33,4.364L406.732,307.687z"/>
	<polyline fill="#444849" points="390.809,270.299 390.809,291.869 391.809,291.869 391.809,270.299 	"/>
	<path fill="#143E5F" d="M394.219,284.532c0,1.536-1.258,2.793-2.793,2.793h-0.232c-1.537,0-2.795-1.257-2.795-2.793v-7.767
		c0-1.536,1.258-2.794,2.795-2.794h0.232c1.535,0,2.793,1.258,2.793,2.794V284.532z"/>
	<path fill="#EE5823" d="M102.472,136.946c-2.947-16.712,8.212-32.648,24.924-35.595c16.711-2.947,32.648,8.212,35.596,24.924
		c2.946,16.712-8.214,32.648-24.925,35.596C121.355,164.816,105.418,153.658,102.472,136.946"/>
	<path fill="#E3E2E1" d="M102.202,135.089c0.071,0.621,0.162,1.244,0.271,1.867c1.006,5.702,3.523,10.757,7.067,14.827
		c-0.009-0.013-0.018-0.026-0.027-0.04c-3.531-4.064-6.039-9.109-7.042-14.797C102.363,136.326,102.273,135.707,102.202,135.089"/>
	<path fill="#A7A9A8" d="M109.514,151.743c0.009,0.013,0.018,0.026,0.027,0.04c4.899,5.624,11.759,9.365,19.301,10.325
		c-0.005-0.004-0.011-0.008-0.017-0.012C121.275,161.131,114.411,157.38,109.514,151.743"/>
	<path fill="#F38B51" d="M132.763,100.89c-1.769,0-3.563,0.153-5.366,0.471c-16.088,2.837-27.03,17.711-25.195,33.728
		c0.071,0.618,0.161,1.237,0.271,1.857c1.003,5.688,3.511,10.733,7.042,14.797c4.897,5.638,11.762,9.388,19.311,10.353
		c-3.995-2.864-7.311-6.679-9.573-11.188c-4.915-3.433-8.518-8.744-9.641-15.115c-2.244-12.723,6.251-24.855,18.974-27.098
		c1.374-0.242,2.741-0.359,4.089-0.359c0.957,0,1.904,0.059,2.838,0.174c1.864-0.728,3.826-1.283,5.872-1.644
		c1.805-0.318,3.601-0.472,5.372-0.472c1.301,0,2.588,0.083,3.856,0.244C145.512,102.988,139.304,100.89,132.763,100.89"/>
	<path fill="#752A16" d="M135.512,108.51c-1.097,0.429-2.162,0.918-3.188,1.461c0.116-0.001,0.231-0.002,0.347-0.002
		c10.361,0,19.543,7.428,21.405,17.985c2.087,11.835-5.816,23.12-17.65,25.207c-1.278,0.225-2.55,0.334-3.804,0.334
		c-5.58,0-10.816-2.154-14.753-5.79c0.403,1.102,0.866,2.172,1.384,3.204c3.84,2.683,8.481,4.219,13.367,4.219
		c1.348,0,2.716-0.117,4.089-0.359c12.723-2.243,21.218-14.375,18.975-27.098C153.854,117.296,145.45,109.733,135.512,108.51"/>
	<path fill="#77422F" d="M132.674,108.336c-1.348,0-2.716,0.117-4.089,0.359c-12.723,2.243-21.218,14.375-18.974,27.098
		c1.123,6.371,4.726,11.682,9.641,15.115c-0.518-1.032-0.981-2.102-1.384-3.204c-3.374-3.117-5.792-7.322-6.651-12.194
		c-2.087-11.835,5.815-23.121,17.65-25.208c1.16-0.205,2.315-0.313,3.457-0.332c1.026-0.543,2.091-1.032,3.188-1.461
		C134.578,108.395,133.631,108.336,132.674,108.336"/>
	<path fill="#FFFFFF" d="M111.217,135.51c-2.087-11.835,5.815-23.121,17.65-25.208c11.834-2.086,23.121,5.816,25.208,17.651
		s-5.816,23.12-17.65,25.207C124.59,155.247,113.304,147.345,111.217,135.51"/>
	<path fill="#CB844C" d="M115.115,134.823c-1.708-9.683,4.758-18.917,14.44-20.624s18.917,4.758,20.625,14.441
		c1.707,9.684-4.76,18.917-14.442,20.625S116.822,144.506,115.115,134.823"/>
	<path fill="#7C7C7D" d="M150.45,131.411c0,0.003,0,0.006,0,0.009C150.45,131.417,150.45,131.414,150.45,131.411 M150.45,131.375
		c0,0.002,0,0.006,0,0.009C150.45,131.381,150.45,131.378,150.45,131.375 M150.448,131.329c0,0.004,0,0.009,0,0.014
		C150.449,131.338,150.449,131.333,150.448,131.329 M150.448,131.292c0,0.006,0,0.012,0,0.018
		C150.448,131.305,150.448,131.298,150.448,131.292 M150.446,131.236c0,0.015,0.001,0.03,0.001,0.045
		C150.447,131.266,150.446,131.251,150.446,131.236 M150.445,131.208c0,0.008,0,0.017,0,0.025
		C150.446,131.225,150.445,131.217,150.445,131.208 M150.21,128.813c0.133,0.802,0.211,1.599,0.235,2.39
		C150.421,130.413,150.343,129.615,150.21,128.813 M150.205,128.784c0.001,0.008,0.002,0.016,0.004,0.024
		C150.208,128.799,150.207,128.792,150.205,128.784 M150.197,128.739c0.002,0.012,0.004,0.023,0.006,0.036
		C150.202,128.763,150.2,128.751,150.197,128.739 M150.192,128.707c0.001,0.005,0.002,0.011,0.003,0.017
		C150.194,128.717,150.193,128.712,150.192,128.707 M150.186,128.673c0.001,0.005,0.001,0.01,0.002,0.015
		C150.188,128.683,150.187,128.678,150.186,128.673 M150.155,128.499c0.003,0.015,0.005,0.03,0.008,0.045
		C150.16,128.529,150.158,128.514,150.155,128.499 M150.13,128.369c0.002,0.01,0.004,0.021,0.006,0.032
		C150.134,128.39,150.132,128.379,150.13,128.369 M128.525,114.411L128.525,114.411L128.525,114.411 M128.563,114.402
		c-0.001,0-0.004,0.001-0.005,0.001C128.559,114.403,128.561,114.403,128.563,114.402 M128.597,114.395
		c-0.002,0-0.003,0-0.006,0.001C128.593,114.396,128.595,114.395,128.597,114.395 M128.631,114.387L128.631,114.387L128.631,114.387
		 M128.673,114.377c-0.004,0.001-0.007,0.001-0.011,0.002C128.665,114.379,128.669,114.378,128.673,114.377 M128.706,114.37
		c-0.004,0.001-0.007,0.001-0.012,0.002C128.698,114.371,128.703,114.37,128.706,114.37 M128.738,114.362
		c-0.003,0-0.006,0.001-0.01,0.002C128.732,114.364,128.735,114.363,128.738,114.362 M128.782,114.353
		c-0.004,0.001-0.009,0.002-0.013,0.003C128.773,114.354,128.777,114.354,128.782,114.353 M128.816,114.345
		c-0.006,0.001-0.01,0.002-0.016,0.003C128.806,114.347,128.811,114.346,128.816,114.345 M128.848,114.338
		c-0.005,0.001-0.011,0.002-0.016,0.003C128.837,114.34,128.843,114.339,128.848,114.338 M128.894,114.328
		c-0.01,0.002-0.02,0.004-0.029,0.006C128.874,114.333,128.883,114.33,128.894,114.328 M128.926,114.321
		c-0.006,0.001-0.011,0.002-0.017,0.003C128.914,114.324,128.92,114.322,128.926,114.321 M128.958,114.314
		c-0.006,0.001-0.012,0.002-0.018,0.004C128.945,114.317,128.952,114.315,128.958,114.314 M128.989,114.308
		c-0.005,0.001-0.011,0.002-0.017,0.004C128.979,114.31,128.983,114.309,128.989,114.308 M129.037,114.298
		c-0.011,0.002-0.022,0.005-0.033,0.007C129.015,114.303,129.025,114.3,129.037,114.298 M129.068,114.292
		c-0.006,0.001-0.013,0.002-0.019,0.004C129.056,114.294,129.062,114.293,129.068,114.292 M129.1,114.285
		c-0.006,0.001-0.013,0.003-0.02,0.004C129.086,114.288,129.094,114.286,129.1,114.285 M129.131,114.279
		c-0.007,0.001-0.014,0.002-0.021,0.004C129.117,114.281,129.125,114.28,129.131,114.279 M129.18,114.269
		c-0.015,0.003-0.029,0.006-0.044,0.009C129.15,114.275,129.165,114.272,129.18,114.269 M129.21,114.263
		c-0.006,0.001-0.014,0.002-0.02,0.004C129.196,114.266,129.203,114.264,129.21,114.263 M129.241,114.257
		c-0.006,0.001-0.013,0.003-0.019,0.004C129.228,114.259,129.234,114.258,129.241,114.257 M129.272,114.251
		c-0.006,0.001-0.013,0.002-0.019,0.003C129.26,114.253,129.266,114.252,129.272,114.251 M129.319,114.242
		c-0.013,0.002-0.025,0.005-0.038,0.007C129.294,114.247,129.307,114.244,129.319,114.242 M129.35,114.236
		c-0.006,0.001-0.012,0.002-0.018,0.003C129.338,114.238,129.344,114.237,129.35,114.236 M129.382,114.23
		c-0.005,0.001-0.011,0.002-0.017,0.003C129.371,114.232,129.376,114.231,129.382,114.23 M129.414,114.224
		c-0.004,0.001-0.008,0.001-0.013,0.002C129.405,114.226,129.409,114.225,129.414,114.224 M129.457,114.216
		c-0.004,0.001-0.009,0.001-0.013,0.002C129.449,114.218,129.452,114.217,129.457,114.216 M129.49,114.21
		c-0.004,0-0.009,0.001-0.013,0.002C129.481,114.212,129.486,114.211,129.49,114.21 M129.523,114.205
		c-0.004,0-0.008,0.001-0.012,0.002C129.516,114.206,129.519,114.205,129.523,114.205 M132.667,113.925
		c-1.015,0-2.042,0.087-3.076,0.267C130.624,114.012,131.652,113.925,132.667,113.925 M132.667,113.925L132.667,113.925
		c0.002,0,0.004,0,0.006,0C132.671,113.925,132.67,113.925,132.667,113.925"/>
	<path fill="#64402C" d="M140.762,121.24L140.762,121.24c0,0.001,0,0.002,0,0.003L140.762,121.24 M141.747,121.065
		C141.747,121.065,141.747,121.066,141.747,121.065L141.747,121.065L141.747,121.065 M142.154,120.581l-0.072,0.007
		c-0.199,0.033-0.341,0.211-0.341,0.406l0.006,0.072l0,0c0.034,0.199,0.211,0.34,0.405,0.34l0,0l0.073-0.006
		c0.2-0.034,0.34-0.21,0.34-0.405l-0.006-0.072C142.524,120.721,142.348,120.581,142.154,120.581 M137.388,119.456
		C137.388,119.456,137.388,119.456,137.388,119.456L137.388,119.456L137.388,119.456 M138.306,118.366l-0.164,0.014
		c-0.451,0.079-0.768,0.473-0.768,0.914l0.015,0.163c0.079,0.45,0.474,0.768,0.913,0.768h0l0.162-0.014
		c0.451-0.079,0.769-0.474,0.769-0.915l-0.014-0.163C139.141,118.683,138.746,118.366,138.306,118.366 M140.762,121.24l0-0.001
		l-0.021-0.245c0-0.675,0.481-1.269,1.167-1.392l0.246-0.021c0.675,0,1.268,0.483,1.39,1.167l0,0.001l0.021,0.245
		c0,0.674-0.48,1.268-1.166,1.39l-0.247,0.022c-0.673,0-1.266-0.479-1.39-1.163l0,0.002L140.762,121.24L140.762,121.24
		L140.762,121.24 M136.404,119.63L136.404,119.63c-0.02-0.113-0.03-0.226-0.03-0.337c0-0.92,0.658-1.732,1.594-1.898
		c0.113-0.02,0.226-0.03,0.337-0.03c0.92,0,1.732,0.658,1.898,1.594c0.02,0.112,0.03,0.225,0.03,0.335
		c0,0.921-0.659,1.732-1.595,1.899c-0.113,0.02-0.225,0.03-0.336,0.03C137.382,121.224,136.571,120.566,136.404,119.63l0.492-0.087
		l0.493-0.086l0,0l-0.493,0.086L136.404,119.63 M132.667,113.925L132.667,113.925c-1.015,0-2.044,0.087-3.077,0.267
		c-0.012,0.002-0.023,0.004-0.035,0.006l0,0l0,0c-0.011,0.002-0.021,0.004-0.032,0.006c-0.004,0-0.007,0.001-0.012,0.002
		c-0.007,0.001-0.014,0.002-0.021,0.004c-0.004,0-0.009,0.001-0.013,0.002c-0.006,0.001-0.013,0.002-0.02,0.004
		c-0.005,0.001-0.008,0.001-0.013,0.002c-0.01,0.002-0.02,0.003-0.03,0.005c-0.004,0.001-0.009,0.002-0.013,0.002
		c-0.006,0.001-0.012,0.002-0.019,0.003c-0.005,0.001-0.011,0.002-0.017,0.003s-0.01,0.002-0.015,0.003
		c-0.006,0.001-0.012,0.002-0.018,0.003c-0.004,0.001-0.009,0.002-0.013,0.002c-0.013,0.002-0.025,0.005-0.038,0.007
		c-0.003,0.001-0.005,0.001-0.009,0.002c-0.006,0.001-0.012,0.002-0.019,0.003c-0.004,0.001-0.008,0.001-0.013,0.002
		c-0.006,0.001-0.013,0.002-0.019,0.004c-0.004,0.001-0.008,0.001-0.012,0.002c-0.007,0.001-0.014,0.002-0.02,0.004
		c-0.003,0-0.006,0.001-0.01,0.002c-0.015,0.003-0.029,0.006-0.044,0.009c-0.001,0-0.003,0-0.004,0.001
		c-0.007,0.001-0.014,0.002-0.021,0.004c-0.003,0.001-0.007,0.001-0.01,0.002c-0.006,0.001-0.014,0.003-0.02,0.004
		c-0.004,0.001-0.008,0.001-0.012,0.002c-0.006,0.001-0.012,0.002-0.019,0.004c-0.004,0.001-0.008,0.001-0.012,0.002
		c-0.011,0.002-0.022,0.005-0.033,0.007c-0.005,0.001-0.009,0.002-0.014,0.003c-0.006,0.001-0.011,0.002-0.017,0.004
		c-0.005,0.001-0.01,0.002-0.015,0.003c-0.005,0.001-0.012,0.002-0.018,0.004c-0.004,0.001-0.009,0.002-0.014,0.003
		c-0.005,0.001-0.012,0.002-0.017,0.003c-0.005,0.001-0.01,0.002-0.015,0.003c-0.01,0.002-0.02,0.004-0.029,0.006
		c-0.006,0.001-0.011,0.002-0.016,0.003s-0.011,0.002-0.016,0.003c-0.005,0.001-0.011,0.002-0.016,0.003
		c-0.005,0.001-0.011,0.002-0.016,0.003c-0.006,0.001-0.013,0.003-0.019,0.004c-0.004,0.001-0.008,0.002-0.013,0.003
		c-0.01,0.002-0.02,0.004-0.031,0.007c-0.003,0-0.006,0.001-0.01,0.002c-0.007,0.002-0.015,0.003-0.022,0.005
		c-0.003,0-0.008,0.001-0.012,0.002c-0.007,0.001-0.014,0.003-0.021,0.005c-0.003,0.001-0.008,0.002-0.011,0.002
		c-0.01,0.002-0.021,0.005-0.031,0.007h0c-0.011,0.002-0.022,0.005-0.033,0.008c-0.002,0-0.004,0.001-0.006,0.001
		c-0.009,0.002-0.019,0.004-0.028,0.006c-0.002,0-0.004,0.001-0.005,0.001c-0.011,0.002-0.021,0.005-0.032,0.007l0,0
		c-5.647,1.338-10.077,5.278-12.238,10.303c2.261-1.818,4.997-3.11,8.058-3.65c1.045-0.185,2.085-0.273,3.111-0.273
		c0.685,0,1.363,0.04,2.032,0.117c-0.067-1.344,0.875-2.561,2.234-2.801c0.159-0.028,0.316-0.042,0.472-0.042
		c1.289,0,2.432,0.925,2.664,2.238c0.124,0.699-0.034,1.383-0.39,1.936c1.212,0.522,2.362,1.178,3.427,1.951
		c0.478-0.731,1.245-1.271,2.173-1.434c0.192-0.034,0.384-0.05,0.573-0.05c1.562,0,2.944,1.119,3.225,2.709
		c0.244,1.382-0.417,2.714-1.557,3.39c1.298,1.969,2.224,4.23,2.659,6.7c0.625,3.546,0.15,7.03-1.174,10.108
		c4.205-3.383,6.76-8.593,6.656-14.194c0-0.003,0-0.006,0-0.009c0-0.009,0-0.018,0-0.027c0-0.003,0-0.006,0-0.009
		c0-0.011,0-0.021-0.001-0.032c0-0.005,0-0.01,0-0.014c0-0.006,0-0.012,0-0.018c0-0.006,0-0.012,0-0.018c0-0.003,0-0.008,0-0.012
		c0-0.015-0.001-0.03-0.001-0.045c0-0.001,0-0.002,0-0.002c0-0.009,0-0.017,0-0.025c0-0.001,0-0.003,0-0.004
		c-0.024-0.791-0.102-1.588-0.235-2.39c0-0.002,0-0.004-0.001-0.006c-0.001-0.008-0.002-0.016-0.004-0.024
		c0-0.003-0.001-0.006-0.001-0.009c-0.002-0.012-0.004-0.024-0.006-0.036c0-0.005-0.001-0.011-0.002-0.016
		c-0.001-0.005-0.002-0.011-0.003-0.017c-0.001-0.006-0.002-0.013-0.003-0.019c-0.001-0.005-0.001-0.01-0.002-0.015
		c-0.002-0.011-0.004-0.022-0.006-0.033l0,0l0,0c-0.005-0.032-0.011-0.064-0.017-0.096c-0.003-0.015-0.005-0.03-0.008-0.045
		c-0.006-0.033-0.012-0.065-0.019-0.098c-0.002-0.011-0.004-0.022-0.006-0.032c-1.631-8.49-9.072-14.439-17.457-14.443
		C132.671,113.925,132.67,113.925,132.667,113.925"/>
	<path fill="#DCAE7E" d="M124.313,126.156c-0.156,0-0.314,0.014-0.474,0.042c-1.472,0.259-2.456,1.664-2.196,3.136
		c0.232,1.313,1.375,2.238,2.663,2.238c0.156,0,0.314-0.014,0.473-0.042c1.474-0.26,2.456-1.665,2.196-3.137
		C126.743,127.08,125.602,126.156,124.313,126.156"/>
	<path fill="#DCAE7E" d="M129.488,120.908c0.006,0.111,0.019,0.224,0.038,0.336c0.232,1.313,1.374,2.238,2.663,2.238
		c0.156,0,0.314-0.013,0.474-0.042c0.773-0.136,1.411-0.588,1.806-1.2C132.898,121.563,131.224,121.109,129.488,120.908"/>
	<path fill="#93755B" d="M132.194,118.066c-0.156,0-0.313,0.014-0.472,0.042c-1.36,0.24-2.302,1.457-2.234,2.801
		c1.736,0.201,3.411,0.655,4.98,1.332c0.356-0.553,0.513-1.237,0.39-1.936C134.626,118.991,133.483,118.066,132.194,118.066"/>
	<path fill="#93755B" d="M137.389,119.457L137.389,119.457L137.389,119.457 M138.306,117.366c-0.112,0-0.225,0.01-0.337,0.03
		c-0.936,0.166-1.594,0.978-1.594,1.898c0,0.111,0.01,0.224,0.029,0.336l0,0.001l0.492-0.087l0.493-0.086c0,0,0,0,0-0.001l0,0.001
		l-0.015-0.163c0-0.441,0.317-0.835,0.768-0.914l0.164-0.014c0.44,0,0.835,0.317,0.914,0.767l0.014,0.163
		c0,0.44-0.318,0.836-0.769,0.915l-0.162,0.014h0c-0.439,0-0.834-0.317-0.913-0.768l-0.493,0.086l-0.492,0.087
		c0.167,0.936,0.978,1.593,1.898,1.594c0.111,0,0.223-0.01,0.336-0.03c0.936-0.167,1.595-0.978,1.595-1.899
		c0-0.111-0.01-0.223-0.03-0.335C140.038,118.023,139.226,117.366,138.306,117.366"/>
	<path fill="#93755B" d="M140.762,121.24l0.001,0.006l0-0.002C140.763,121.242,140.762,121.241,140.762,121.24 M140.762,121.24
		L140.762,121.24L140.762,121.24 M141.747,121.066L141.747,121.066L141.747,121.066L141.747,121.066 M142.154,119.581l-0.246,0.021
		c-0.686,0.123-1.167,0.717-1.167,1.392l0.021,0.245l0,0.001l0.492-0.087l0.493-0.086c0,0,0,0,0-0.001l0,0.001l-0.006-0.072
		c0-0.195,0.142-0.373,0.341-0.406l0.072-0.007c0.194,0,0.37,0.141,0.405,0.342l0.006,0.072c0,0.195-0.14,0.371-0.34,0.405
		l-0.073,0.006l0,0c-0.194,0-0.371-0.141-0.405-0.34l-0.493,0.086l-0.492,0.087l0,0.003c0.124,0.683,0.717,1.162,1.39,1.163
		l0.247-0.022c0.686-0.122,1.167-0.716,1.166-1.39l-0.021-0.245l0-0.001C143.421,120.063,142.829,119.581,142.154,119.581"/>
	<path fill="#DCAE7E" d="M137.895,124.191c-0.44,0.673-0.635,1.509-0.484,2.363c0.281,1.59,1.663,2.709,3.224,2.709
		c0.188,0,0.38-0.017,0.572-0.05c0.401-0.071,0.772-0.211,1.103-0.407C141.12,127.001,139.618,125.442,137.895,124.191"/>
	<path fill="#93755B" d="M140.641,122.707c-0.189,0-0.38,0.017-0.573,0.05c-0.928,0.164-1.695,0.703-2.173,1.434
		c1.723,1.251,3.225,2.811,4.414,4.615c1.14-0.676,1.8-2.008,1.557-3.39C143.585,123.826,142.202,122.707,140.641,122.707"/>
	<path fill="#FFFFFF" d="M169.84,126.336c0.083,0.472-0.015,0.977-0.311,1.4c-0.297,0.424-0.737,0.688-1.21,0.771l-15.779,2.782
		l-1.048-5.946l15.778-2.782c0.473-0.083,0.977,0.014,1.4,0.311s0.688,0.737,0.771,1.21L169.84,126.336z"/>
	<circle fill="#444849" cx="92.842" cy="194.38" r="0.986"/>
	<polyline fill="#EE5823" points="109.109,263.251 101.111,264.661 90.68,205.502 98.678,204.092 109.109,263.251 	"/>
	<polyline fill="#FFFFFF" points="93.813,194.209 91.872,194.552 90.68,205.502 98.678,204.092 93.813,194.209 	"/>
	<polyline fill="#143E5F" points="107.014,251.364 99.015,252.774 98.288,248.647 106.287,247.237 107.014,251.364 	"/>
	<path fill="#143E5F" d="M110.385,265.919l-4.801-27.229c-0.122-0.692,0.006-1.43,0.415-2.047c0.408-0.617,1.019-0.998,1.676-1.114
		l1.558-0.274l4.826,27.367c0.116,0.657-0.019,1.359-0.433,1.949c-0.412,0.59-1.025,0.957-1.683,1.072L110.385,265.919"/>
	<polyline fill="#143E5F" points="109.195,263.731 101.196,265.142 100.468,261.015 108.466,259.604 109.195,263.731 	"/>
	<polyline fill="#143E5F" points="107.943,250.188 106.84,250.382 106.459,248.22 107.562,248.025 107.943,250.188 	"/>
	<polyline fill="#143E5F" points="110.124,262.556 109.022,262.75 108.64,260.587 109.742,260.394 110.124,262.556 	"/>
	<path fill="#FFFFFF" d="M110.199,275.258c0.115,0.657-0.02,1.358-0.434,1.948c-0.411,0.59-1.025,0.957-1.683,1.073l-0.865,0.153
		c-0.657,0.115-1.36-0.02-1.95-0.434c-0.59-0.412-0.956-1.025-1.072-1.683l-2.001-11.351l6.003-1.059L110.199,275.258"/>
	<path fill="#A7A9A8" d="M109.195,263.731l-0.998,0.176l0,0L109.195,263.731 M107.014,251.364L107.014,251.364l1.452,8.24h0
		l0.729,4.127l-0.38-2.153l-0.175-0.991l0,0L107.014,251.364 M98.678,204.092L98.678,204.092l-3.999,0.705L98.678,204.092
		l7.607,43.146h0L98.678,204.092"/>
	<path fill="#F38B51" d="M107.013,251.364l-3.998,0.705l1.453,8.24l3.998-0.705L107.013,251.364 M98.678,204.092l-3.999,0.705
		l7.608,43.146l3.999-0.705L98.678,204.092"/>
	<polyline fill="#2E6686" points="106.286,247.237 106.286,247.237 102.287,247.942 103.015,252.069 107.013,251.364 
		107.014,251.364 106.841,250.382 106.84,250.382 106.459,248.22 106.459,248.22 106.286,247.237 	"/>
	<polyline fill="#2E6686" points="108.466,259.604 108.466,259.604 104.468,260.31 105.196,264.437 108.197,263.907 
		109.195,263.731 108.466,259.604 	"/>
	<polyline fill="#2E6686" points="106.459,248.22 106.459,248.22 106.84,250.382 106.841,250.382 106.459,248.22 	"/>
	<polyline fill="#2E6686" points="108.64,260.587 108.64,260.587 108.815,261.578 108.64,260.587 	"/>
	<polyline fill="#FFFFFF" points="108.197,263.907 105.196,264.437 105.196,264.437 108.197,263.907 108.197,263.907 	"/>
	<path fill="#2E6686" d="M109.233,235.255l-1.415,0.249l5.229,29.65c0.217-0.161,0.417-0.351,0.58-0.583
		c0.32-0.456,0.474-0.979,0.473-1.498c0-0.151-0.014-0.303-0.04-0.452l-4.008-22.728L109.233,235.255"/>
	<path fill="#7C7C7D" d="M340.176,142.368L340.176,142.368L340.176,142.368c-0.068,0.389-0.144,0.774-0.225,1.158
		c0,0.001,0,0.002-0.001,0.003c-0.001,0.004-0.001,0.009-0.002,0.013c-3.39,15.985-17.535,27.126-33.451,27.126
		c-1.974,0-3.976-0.171-5.987-0.526c-11.472-2.022-20.594-9.535-25.142-19.359c3.84,11.55,13.732,20.68,26.562,22.942
		c2.012,0.355,4.012,0.526,5.986,0.526c16.303,0,30.749-11.688,33.68-28.3c0.192-1.09,0.33-2.178,0.417-3.259L340.176,142.368"/>
	<path fill="#FFFFFF" d="M272.735,130.476c3.284-18.624,21.043-31.06,39.667-27.775c18.623,3.284,31.057,21.043,27.773,39.667
		c-3.285,18.624-21.043,31.059-39.666,27.774C281.884,166.858,269.451,149.099,272.735,130.476"/>
	<path fill="#FFFFFF" d="M449.861,66.746c0,0,2.814-14.335,0.887-18.595c-1.928-4.259-5.922-7.211-10.961-8.101L214.125,0.26
		c-5.037-0.889-9.802,0.521-13.068,3.863c-3.269,3.342-5.528,17.776-5.528,17.776L449.861,66.746"/>
	<path fill="#143E5F" d="M229.458,122.845c-8.088-1.427-15.435-8.404-17.086-16.23l-16.685-79.106
		c-1.028-4.875,0.244-9.521,3.493-12.748c3.246-3.229,7.998-4.569,13.036-3.681l225.664,39.79c5.037,0.888,9.043,3.773,10.99,7.919
		c1.949,4.143,1.557,8.944-1.078,13.173l-42.734,68.629c-4.229,6.79-13.518,10.834-21.607,9.407L229.458,122.845"/>
	<path fill="#EE5823" d="M397.234,139.042c-2.447,4.021-8.242,6.646-12.879,5.828l-153.993-27.152
		c-4.635-0.818-9.185-5.265-10.107-9.881l-16.278-81.42c-0.922-4.617,2.116-7.727,6.753-6.908L436.393,59.3
		c4.639,0.817,6.428,4.776,3.982,8.8L397.234,139.042"/>
	<path fill="#3E4045" d="M339.95,143.529c-0.001,0.004-0.001,0.009-0.002,0.013C339.949,143.538,339.949,143.533,339.95,143.529
		 M340.176,142.368c-0.068,0.389-0.144,0.774-0.225,1.158C340.032,143.142,340.107,142.756,340.176,142.368"/>
	<path fill="#7C7C7D" d="M272.735,130.476L272.735,130.476L272.735,130.476c-0.442,2.509-0.591,5.002-0.484,7.447l65.835,11.608
		c0.788-1.906,1.419-3.906,1.862-5.99c0.001-0.004,0.001-0.009,0.002-0.013c0.001-0.001,0.001-0.002,0.001-0.003
		c0.081-0.383,0.156-0.769,0.225-1.158l0,0L272.735,130.476"/>
	<polyline fill="#E2E2E1" points="315.123,115.474 232.763,100.953 223.299,53.614 323.902,71.353 315.123,115.474 	"/>
	<polyline fill="#B9B9BA" points="307.584,110.43 237.933,98.15 232.632,64.833 312.699,78.367 307.584,110.43 	"/>
	<polyline fill="#F6B843" points="322.703,77.371 224.574,60.068 223.299,53.614 323.902,71.353 322.703,77.371 	"/>
	<polygon fill="#E2E2E1" points="233.476,60.044 233.563,59.552 227.675,58.514 227.389,56.305 232.863,57.271 232.977,60.065 
		233.476,60.044 233.563,59.552 233.476,60.044 233.976,60.024 233.83,56.426 226.223,55.084 226.777,59.372 234.001,60.645 
		233.976,60.024 	"/>
	<polygon fill="#E2E2E1" points="242.093,61.564 242.18,61.072 236.292,60.033 236.006,57.825 241.48,58.79 241.594,61.584 
		242.093,61.564 242.18,61.072 242.093,61.564 242.593,61.543 242.447,57.945 234.84,56.604 235.395,60.89 242.618,62.164 
		242.593,61.543 	"/>
	<polygon fill="#E2E2E1" points="250.71,63.083 250.797,62.591 244.909,61.552 244.624,59.344 250.097,60.31 250.211,63.104 
		250.71,63.083 250.797,62.591 250.71,63.083 251.21,63.063 251.064,59.465 243.458,58.124 244.012,62.41 251.235,63.684 
		251.21,63.063 	"/>
	<path fill="#CCCBCC" d="M436.393,59.3L210.73,19.509c-4.637-0.818-7.675,2.291-6.753,6.908l0.937,4.68l232.983,41.081l2.479-4.078
		C442.82,64.077,441.031,60.118,436.393,59.3"/>
	<path fill="#2E6686" d="M277.642,31.307L277.642,31.307L436.393,59.3c3.226,0.568,5.073,2.656,5.077,5.227
		c0.002,1.127-0.35,2.347-1.095,3.573l0,0l-2.479,4.078l-40.662,66.864c-2.146,3.526-6.864,5.977-11.12,5.977
		c-0.531,0-1.055-0.038-1.565-0.117c0.52,0.082,1.052,0.122,1.592,0.122c4.256,0,8.974-2.45,11.119-5.977L440.4,68.105
		c2.447-4.022,0.656-7.983-3.982-8.801L277.642,31.307"/>
	<path fill="#F38B51" d="M287.719,45.698l15.397,21.99l20.787,3.665l-4.032,20.263l33.458,47.783l31.053,5.476
		c0.056,0.01,0.112,0.019,0.168,0.028c0.511,0.079,1.034,0.117,1.565,0.117c4.256,0,8.975-2.451,11.12-5.977l40.661-66.864
		L287.719,45.698"/>
	<polyline fill="#EDECEC" points="323.902,71.353 322.703,77.371 308.092,74.794 310.311,77.963 312.699,78.367 312.309,80.816 
		319.87,91.616 323.902,71.353 	"/>
	<polyline fill="#D2D2D3" points="310.311,77.963 312.309,80.816 312.699,78.367 310.311,77.963 	"/>
	<polyline fill="#F8D379" points="303.116,67.688 308.092,74.794 322.703,77.371 323.902,71.353 303.116,67.688 	"/>
	<path fill="#DEDDDE" d="M277.642,31.307l10.077,14.391l150.178,26.48l2.479-4.078c0.745-1.226,1.097-2.446,1.095-3.573
		c-0.004-2.571-1.852-4.659-5.077-5.227L277.642,31.307"/>
	<path fill="#CCCBCC" d="M213.957,31.011c0-5.259,4.132-8.793,9.233-7.894s9.235,5.892,9.236,11.15
		c-0.001,5.26-4.134,8.794-9.235,7.895S213.955,36.271,213.957,31.011z"/>
	<path fill="#B9B9BA" d="M215.925,31.359c0-4.139,3.252-6.92,7.265-6.212c4.015,0.708,7.267,4.636,7.268,8.774
		c-0.001,4.139-3.253,6.919-7.267,6.212C219.177,39.425,215.924,35.498,215.925,31.359z"/>
	<polyline fill="#E3E2E1" points="49.795,60.435 29.819,173.722 43.827,176.191 63.803,62.905 49.795,60.435 	"/>
	<path fill="#E3E2E1" d="M43.827,176.192L43.827,176.192l5.389,0.949L43.827,176.192 M63.803,62.905L63.803,62.905l5.389,0.95
		L63.803,62.905"/>
	<polyline fill="#EDECEC" points="63.803,62.905 43.827,176.192 49.215,177.142 69.192,63.855 63.803,62.905 	"/>
	<polyline fill="#FFFFFF" points="30.756,168.409 39.164,169.892 39.338,168.907 30.93,167.425 	"/>
	<polyline fill="#FFFFFF" points="31.332,165.144 35.536,165.886 35.71,164.901 31.506,164.159 	"/>
	<polyline fill="#FFFFFF" points="31.908,161.88 36.112,162.62 36.286,161.636 32.082,160.896 	"/>
	<polyline fill="#FFFFFF" points="32.483,158.616 36.688,159.357 36.861,158.373 32.657,157.631 	"/>
	<polyline fill="#FFFFFF" points="33.059,155.351 41.466,156.833 41.64,155.849 33.232,154.367 	"/>
	<polyline fill="#FFFFFF" points="33.564,152.485 37.769,153.226 37.942,152.242 33.738,151.5 	"/>
	<polyline fill="#FFFFFF" points="34.14,149.22 38.344,149.961 38.518,148.977 34.313,148.236 	"/>
	<polyline fill="#FFFFFF" points="34.715,145.956 38.919,146.697 39.093,145.712 34.889,144.971 	"/>
	<polyline fill="#FFFFFF" points="35.291,142.691 43.699,144.174 43.873,143.19 35.465,141.707 	"/>
	<polyline fill="#FFFFFF" points="35.796,139.825 40,140.566 40.174,139.582 35.97,138.84 	"/>
	<polyline fill="#FFFFFF" points="36.372,136.56 40.576,137.302 40.75,136.318 36.546,135.576 	"/>
	<polyline fill="#FFFFFF" points="36.948,133.296 41.152,134.037 41.326,133.052 37.122,132.312 	"/>
	<polyline fill="#FFFFFF" points="37.523,130.032 45.931,131.514 46.105,130.53 37.697,129.047 	"/>
	<polyline fill="#FFFFFF" points="38.029,127.166 42.233,127.906 42.407,126.921 38.203,126.181 	"/>
	<polyline fill="#FFFFFF" points="38.604,123.901 42.808,124.642 42.982,123.658 38.778,122.917 	"/>
	<polyline fill="#FFFFFF" points="39.18,120.636 43.384,121.377 43.558,120.393 39.354,119.652 	"/>
	<polyline fill="#FFFFFF" points="39.756,117.372 48.164,118.854 48.337,117.87 39.93,116.387 	"/>
	<polyline fill="#FFFFFF" points="40.261,114.505 44.464,115.247 44.638,114.262 40.435,113.521 	"/>
	<polyline fill="#FFFFFF" points="40.837,111.241 45.041,111.982 45.214,110.998 41.011,110.256 	"/>
	<polyline fill="#FFFFFF" points="41.412,107.976 45.617,108.718 45.791,107.734 41.585,106.992 	"/>
	<polyline fill="#FFFFFF" points="41.988,104.712 50.396,106.195 50.57,105.21 42.162,103.728 	"/>
	<polyline fill="#FFFFFF" points="42.494,101.845 46.697,102.587 46.871,101.603 42.667,100.861 	"/>
	<polyline fill="#FFFFFF" points="43.069,98.582 47.273,99.322 47.447,98.337 43.243,97.597 	"/>
	<polyline fill="#FFFFFF" points="43.644,95.317 47.849,96.058 48.023,95.074 43.818,94.333 	"/>
	<polyline fill="#FFFFFF" points="44.22,92.052 52.628,93.535 52.802,92.55 44.394,91.068 	"/>
	<polyline fill="#FFFFFF" points="44.726,89.186 48.929,89.927 49.103,88.943 44.9,88.202 	"/>
	<polyline fill="#FFFFFF" points="45.301,85.921 49.505,86.663 49.679,85.678 45.475,84.937 	"/>
	<polyline fill="#FFFFFF" points="45.876,82.657 50.082,83.398 50.255,82.414 46.05,81.672 	"/>
	<polyline fill="#FFFFFF" points="46.453,79.392 54.86,80.875 55.034,79.891 46.626,78.408 	"/>
	<polyline fill="#FFFFFF" points="46.958,76.526 51.162,77.267 51.335,76.283 47.132,75.542 	"/>
	<polyline fill="#FFFFFF" points="47.533,73.261 51.738,74.003 51.912,73.019 47.707,72.277 	"/>
	<polyline fill="#FFFFFF" points="48.109,69.998 52.313,70.738 52.487,69.753 48.283,69.013 	"/>
	<polyline fill="#FFFFFF" points="48.685,66.733 57.092,68.215 57.266,67.231 48.859,65.749 	"/>
	<polyline fill="#7C7C7D" points="68.608,67.2 49.215,177.183 33.296,174.376 32.714,177.681 52.11,181.101 72.085,67.813 
		68.608,67.2 	"/>
</g>
</svg>
