<?xml version="1.0" encoding="utf-8"?>
<!-- Generator: Adobe Illustrator 16.0.3, SVG Export Plug-In . SVG Version: 6.00 Build 0)  -->
<!DOCTYPE svg PUBLIC "-//W3C//DTD SVG 1.1//EN" "http://www.w3.org/Graphics/SVG/1.1/DTD/svg11.dtd">
<svg version="1.1" id="Layer_1" xmlns="http://www.w3.org/2000/svg" xmlns:xlink="http://www.w3.org/1999/xlink" x="0px" y="0px"
	 width="448.829px" height="349.449px" viewBox="0 0 448.829 349.449" enable-background="new 0 0 448.829 349.449"
	 xml:space="preserve">
<g>
	<path fill="#ADADAD" d="M416.045,154.809l-26.146,39.421l-4.451-2.953l-0.445,0.671l1.885,1.25l-5.939,11.124l8.197-9.626
		l1.969,1.306l26.152-39.428c0.594,0.252,1.213,0.487,1.867,0.685c0.226,0.068,0.45,0.13,0.674,0.187l0.003-1.497
		c-0.598-0.113-1.206-0.259-1.821-0.441c-0.023-0.007-0.047-0.014-0.07-0.021l0,0C417.264,155.289,416.639,155.061,416.045,154.809
		 M409.272,150.131l-0.113,0.242c0,0,0.191,0.266,0.564,0.699l0.2-0.301C409.685,150.547,409.467,150.332,409.272,150.131
		 M433.988,128.963l-3.95,26.299l0,0c-0.007,0.002-1.111,0.42-2.894,0.723l-0.095,42.535h-6.115l-0.004,1.772h7.25l-0.031,3.88
		h0.545l-0.084,9.08h0.002l1.301,3.106l1.248,2.977l1.301-2.953l1.357-3.083l0.084-9.127h0.613l0.105-13.47h-0.596l0.057-6.049
		h0.002l0.014-1.621l0.01-1.237l0.023-2.322l-0.002-0.019l0.002-0.29h-0.043c-0.041-0.327-0.133-0.646-0.32-0.899
		c-0.244-0.336-0.566-0.506-0.891-0.508l-2.67-0.026c-0.002,0-0.004,0-0.006,0c-0.324,0-0.648,0.163-0.896,0.493
		c-0.191,0.251-0.287,0.566-0.336,0.893h-0.045l-0.004,0.305v0.005l-0.033,3.706l-0.07,7.57h-0.531l0.072-32.946
		c1.787-0.303,2.895-0.722,2.895-0.722l4.152-27.645L433.988,128.963"/>
	<polyline fill="#ADADAD" points="436.942,194.52 434.604,194.52 434.565,199.466 436.903,199.467 436.942,194.52 	"/>
	<polyline fill="#ADADAD" points="429.932,113.01 426.25,125.224 426.979,125.444 426.979,125.443 431.479,126.801 435.163,114.586 
		429.932,113.01 	"/>
	<path fill="#ADADAD" d="M134.649,31.427h-12.545c-2.75,0-5,2.25-5,5v2.189c0,2.75,2.25,5,5,5h14.512
		c-1.283-3.488-1.982-7.257-1.982-11.189C134.634,32.092,134.639,31.759,134.649,31.427 M198.825,25.873
		c0.434,2.117,0.663,4.309,0.663,6.554c0,17.908-14.518,32.427-32.427,32.427c-13.785,0-25.561-8.603-30.253-20.731
		c3.05,14.742,16.1,25.826,31.746,25.826c17.909,0,32.427-14.519,32.427-32.427C200.98,33.416,200.216,29.488,198.825,25.873"/>
	<polyline fill="#ADADAD" points="361.368,148.547 333.516,248.139 267.333,229.629 266.129,233.935 335.825,253.427 
		364.881,149.53 361.368,148.547 	"/>
	<path fill="#ADADAD" d="M380.989,308.5h-11.768v4.296h12.44l-1.702-0.456L380.989,308.5 M446.712,279.811l-45.446,26.237l-3,11.197
		l-16.275-4.361l-1.006,3.752l18.307,4.905l3-11.197l46.537-26.867L446.712,279.811 M413.787,259.32l-5.584,20.839l2.575-1.487
		l5.039-18.808L413.787,259.32 M388.172,248.943h-1.025v36.571l1.025-3.827V248.943"/>
	<path fill="#ADADAD" d="M13.888,151.702c-0.01,0-0.02,0-0.029,0c-4.305,0-8.925,0.663-13.829,2.084l0.557,1.921
		c4.742-1.374,9.173-2.005,13.272-2.005c10.907,0.008,19.475,4.439,25.4,11.442c5.918,7.004,9.154,16.623,9.153,26.946
		c0,5.229-0.83,10.637-2.556,15.969c-1.517,4.688-2.171,8.922-2.17,12.73c-0.002,5.444,1.34,10.014,3.354,13.767
		c3.023,5.633,7.528,9.429,11.262,11.823c1.598,1.024,3.058,1.793,4.21,2.34l0.527-1.967c-2.035-0.993-4.964-2.671-7.825-5.185
		c-2.431-2.134-4.813-4.864-6.585-8.286c-1.771-3.423-2.942-7.536-2.943-12.492c0-3.579,0.613-7.601,2.073-12.114
		c1.79-5.531,2.653-11.145,2.653-16.585c-0.001-10.736-3.358-20.812-9.625-28.237C34.532,156.433,25.334,151.702,13.888,151.702"/>
	<path fill="#ADADAD" d="M236.863,262.134c-0.167,0-0.325,0.062-0.449,0.167l0.37,7.075l-2.567,9.58
		c0.182,0.142,0.343,0.318,0.465,0.529c0.254,0.441,0.307,0.942,0.185,1.398l-0.477,1.779c-0.123,0.456-0.418,0.865-0.859,1.119
		c-0.212,0.122-0.439,0.194-0.667,0.225l-0.376,1.402c0.182,0.143,0.344,0.317,0.466,0.53c0.254,0.44,0.307,0.942,0.185,1.397
		l-0.478,1.781c-0.122,0.454-0.418,0.863-0.859,1.118c-0.212,0.123-0.439,0.193-0.667,0.226l-7.551,28.18l-0.757,2.826
		c-0.162,0.604-0.554,1.145-1.139,1.482c-0.384,0.223-0.803,0.328-1.218,0.328c-0.215,0-0.428-0.028-0.635-0.084l0-0.001
		c-0.028-0.006-0.056-0.013-0.083-0.021l-2.141-0.574c-0.135-0.036-0.267-0.084-0.394-0.143c-0.097,0.546-0.009,1.127,0.291,1.646
		c0.336,0.584,0.878,0.977,1.482,1.138l2.141,0.574l0.088,0.015l-0.005,0.007c0.206,0.056,0.42,0.084,0.635,0.084
		c0.414,0,0.834-0.105,1.218-0.328c0.584-0.338,0.977-0.879,1.139-1.482l0.757-2.826l7.551-28.18
		c0.229-0.032,0.456-0.103,0.667-0.226c0.441-0.255,0.737-0.664,0.859-1.118l0.478-1.781c0.122-0.455,0.069-0.957-0.185-1.397
		c-0.122-0.213-0.284-0.388-0.466-0.53l0.376-1.402c0.229-0.03,0.456-0.103,0.667-0.225c0.441-0.254,0.737-0.663,0.859-1.119
		l0.477-1.779c0.123-0.456,0.07-0.957-0.185-1.398c-0.123-0.211-0.284-0.388-0.465-0.529l2.567-9.58l-0.469-8.974l-0.083-0.021
		v-0.001l-0.085-0.022c0.099-0.366-0.118-0.742-0.485-0.841C236.981,262.142,236.921,262.134,236.863,262.134"/>
	<path fill="#ADADAD" d="M220.09,253.238c1.064,2.147,1.247,4.528,0.664,6.703l-14.616,54.546c-0.632,2.359-2.164,4.478-4.446,5.796
		c-1.503,0.867-3.144,1.279-4.762,1.279c-0.84,0-1.674-0.111-2.48-0.327l-20.524-5.499l0,0l-8.988-2.408l-81.974-21.965
		l-20.523-5.499c-1.099-0.294-2.146-0.784-3.084-1.454c0.09,0.182,0.186,0.361,0.289,0.539c1.317,2.282,3.436,3.814,5.795,4.446
		l20.523,5.499l81.974,21.965l8.988,2.408l20.524,5.499c0.806,0.216,1.641,0.327,2.48,0.327c1.619,0,3.259-0.412,4.762-1.279
		c2.282-1.318,3.814-3.437,4.446-5.796l14.616-54.546c0.632-2.359,0.364-4.96-0.953-7.243
		C222.096,255.011,221.165,254.007,220.09,253.238"/>
	<path fill="#ADADAD" d="M302.568,57.662c-0.423,0-0.848,0.078-1.249,0.237c0.59,0.163,1.141,0.483,1.584,0.956l-0.096,0.059
		l-0.006,0.006l0.088-0.053l0.129,0.125l6.496,7.705l0.101,0.148l-0.065,0.075l0.007-0.004l0.073-0.083
		c1.083,1.435,0.878,3.493-0.512,4.665l-6.186,5.215c-0.29,0.245-0.609,0.432-0.945,0.564c0.299,0.082,0.607,0.124,0.916,0.124
		c0.778,0,1.56-0.263,2.197-0.8l6.186-5.215c1.389-1.172,1.594-3.23,0.51-4.665l-0.072,0.083l-0.008,0.005l0.066-0.076l-0.1-0.148
		l-6.496-7.705l-0.131-0.125l-0.088,0.053l0.008-0.006l0.094-0.059C304.4,58.03,303.487,57.662,302.568,57.662"/>
	<path fill="#ADADAD" d="M212.454,176.782h-2.106c0.473,1.348,1.043,2.696,1.703,4.05c0.723,1.417,1.55,2.848,2.474,4.301
		c3.781,5.955,9.16,12.244,15.425,19.296c12.53,14.109,28.593,31.276,42.462,55.25c2.059,3.559,3.869,7.024,5.453,10.396
		c11.393,23.912,11.022,42.675,8.389,54.703c-0.637,2.909-1.429,5.559-2.292,7.939c-0.81,2.339-1.689,4.438-2.569,6.289
		c-2.435,5.124-4.874,8.362-5.861,9.574c0.046,0.185,0.146,0.358,0.298,0.496c0.191,0.173,0.432,0.259,0.671,0.259
		c0.272,0,0.544-0.11,0.741-0.328c0.308-0.34,7.584-8.497,10.938-23.679c3.082-13.947,3.224-36.678-13.602-65.763
		c-12.645-21.858-27.305-38.272-39.084-51.461C224.625,195.937,215.985,186.247,212.454,176.782 M206.814,164.377h-1.69h-0.707
		v0.112h2.382C206.804,164.452,206.809,164.415,206.814,164.377 M244.495,69.3l-3.489,0.686c-0.798,0.1-1.563,0.479-2.137,1.129
		c-0.573,0.649-0.854,1.456-0.854,2.261v2.588c0,0.402,0.07,0.804,0.212,1.188c0.614-1.476,0.905-2.423,0.959-2.609l0.009-0.032
		c0.125-0.44,0.525-0.728,0.962-0.728c0.09,0,0.182,0.012,0.272,0.038c0.532,0.15,0.841,0.703,0.69,1.234
		c-0.038,0.116-4.415,15.577-20.724,26.615c-2.111,1.426-3.517,2.649-4.354,3.672c-0.361,0.442-0.615,0.837-0.787,1.195
		c-0.073,0.283-0.119,0.565-0.138,0.848c-0.046,0.683,0.063,1.32,0.294,1.929c0.115,0.194,0.25,0.394,0.409,0.603
		c0.594,0.782,1.485,1.627,2.51,2.548c2.047,1.849,4.628,4.003,6.397,7.036c0.37,0.634,0.702,1.307,0.983,2.022
		c1.32,2.911,1.679,6.603-0.092,11.592c-0.325,1-0.729,2.042-1.217,3.13c-1.618,3.604-4.172,7.719-7.95,12.493
		c-2.933,3.708-4.962,7.174-6.227,10.489c-0.608,1.745-1.021,3.459-1.256,5.151h-0.13c-0.006,0.038-0.012,0.075-0.017,0.112h0.751
		c0.578-0.805,1.234-1.709,1.959-2.691c1.103-4.164,3.386-8.497,7.087-13.173c17.588-22.219,8.458-30.388,2.416-35.793
		c-2.166-1.938-4.037-3.612-3.922-5.313c0.108-1.606,1.892-3.557,5.45-5.963c10.919-7.383,16.465-16.67,18.968-22.101l2.943,0.579
		c-0.004-0.071-0.007-0.142-0.007-0.214V69.743C244.466,69.593,244.476,69.445,244.495,69.3 M292.203,69.286l-2.486,3.099
		c-0.546,0.59-0.887,1.373-0.906,2.24c-0.02,0.866,0.285,1.664,0.805,2.279l1.668,1.979c0.52,0.615,1.253,1.051,2.111,1.178
		c0.023,0.003,0.047,0.007,0.07,0.01c-0.354-0.669-0.742-1.347-1.164-2.034c-0.289-0.471-0.142-1.086,0.329-1.375
		c0.163-0.101,0.344-0.148,0.522-0.148c0.336,0,0.664,0.169,0.853,0.477c0.839,1.365,1.555,2.708,2.153,4.028
		c2.932,6.06,3.368,11.86,1.285,17.292c-1.003,2.95-2.621,5.676-4.662,8.164c-3.541,4.319-8.351,7.966-13.569,11.012
		c-10.44,6.086-22.521,9.769-29.508,11.238c-3.583,0.741-7.86,3.353-12.198,6.968c-4.344,3.61-8.77,8.2-12.807,12.826
		c-5.165,5.917-9.696,11.891-12.662,15.972h1.461v10.543v1.638h2.167v-1.75v-10.543h-1.452
		c7.584-10.416,25.367-33.187,37.657-35.766c13.202-2.771,40.035-12.343,47.093-28.737c2.861-6.646,2.271-13.751-1.732-21.147
		l2.472-1.371c-0.599-0.188-1.153-0.541-1.585-1.053L292.203,69.286 M258.139,66.215h-8.09c-0.299,0-0.59,0.039-0.867,0.112h6.791
		c1.817,0,3.302,1.442,3.398,3.237l-0.11-0.017l-0.009,0.001l0.101,0.016l0.019,0.179v10.078L259.352,80l-0.101,0.016l0.009,0.001
		L259.37,80c-0.081,1.5-1.129,2.753-2.532,3.125h1.301c1.818,0,3.303-1.442,3.398-3.237l-0.109,0.017l-0.01-0.001l0.101-0.016
		l0.019-0.179V69.631l-0.019-0.179l-0.101-0.016l0.01-0.001l0.109,0.017C261.441,67.657,259.957,66.215,258.139,66.215"/>
	<path fill="#ADADAD" d="M176.12,134.381l-3.512,4.455l-3.667,4.651l-15.534,57.973l0.038,0.01c-0.073,0.578-0.02,1.164,0.186,1.683
		c0.27,0.679,0.746,1.109,1.298,1.258l4.534,1.215c0.142,0.038,0.289,0.057,0.438,0.057c0.433,0,0.888-0.161,1.314-0.499
		c0.437-0.346,0.776-0.826,1.002-1.362l0.038,0.01l0.141-0.525l0-0.001l1.687-6.294l0.67-2.502l13.036-48.651l-0.004-0.001
		l-0.85-5.861L176.12,134.381"/>
	<path fill="#ADADAD" d="M164.84,102.71l-22.081,82.407l-4.569-1.225l-0.653,2.437l-60.39-16.182
		c-1.877-0.503-3.61-1.55-4.939-3.073c0.215,0.676,0.506,1.34,0.875,1.98c1.381,2.391,3.601,3.996,6.072,4.658l1.286,0.345
		l4.203,1.127v-0.001l54.9,14.711l0.653-2.437l4.569,1.225l22.837-85.231l-2.466-0.661L164.84,102.71"/>
	<polyline fill="#FFFFFF" points="333.516,248.139 263.819,228.646 292.876,124.75 362.572,144.242 333.516,248.139 	"/>
	<path fill="#ADADAD" d="M251.515,199.452c3.583,6.628,9.333,11.91,16.303,14.897l0.817-2.921
		C261.721,209.346,255.75,205.089,251.515,199.452"/>
	<path fill="#ADADAD" d="M307.805,163.444c2.558,4.731,4.01,10.149,4.01,15.904c0,18.501-15,33.5-33.501,33.5
		c-3.365,0-6.615-0.497-9.679-1.42l-0.817,2.921c4.047,1.735,8.504,2.695,13.186,2.695c18.5,0,33.5-14.999,33.5-33.5
		C314.504,176.003,312.012,169.043,307.805,163.444"/>
	<polyline fill="#FFFFFF" points="392.504,311.106 383.028,294.693 438.327,262.768 447.803,279.181 392.504,311.106 	"/>
	<polyline fill="#1CA5BA" points="432.397,284.05 426.407,273.675 436.782,267.687 442.77,278.061 432.397,284.05 	"/>
	<polyline fill="#803150" points="419.616,291.429 413.625,281.055 424,275.065 429.989,285.438 419.616,291.429 	"/>
	<polyline fill="#5D478A" points="406.833,298.809 400.842,288.435 411.215,282.446 417.206,292.819 406.833,298.809 	"/>
	<polyline fill="#F4AF17" points="394.051,306.188 388.061,295.814 398.434,289.825 404.422,300.2 394.051,306.188 	"/>
	<polyline fill="#FFFFFF" points="429.293,278.675 429.293,278.675 432.397,284.05 429.293,278.675 	"/>
	<polyline fill="#42B5C9" points="439.667,272.687 429.293,278.675 432.397,284.05 442.77,278.061 439.667,272.687 	"/>
	<polyline fill="#FFFFFF" points="416.513,286.056 416.512,286.056 419.616,291.429 416.513,286.056 	"/>
	<polyline fill="#AA647E" points="426.885,280.065 416.513,286.056 419.616,291.429 429.989,285.438 426.885,280.065 	"/>
	<polyline fill="#FFFFFF" points="404.355,294.519 404.355,294.52 406.833,298.809 404.355,294.519 	"/>
	<polyline fill="#8776A8" points="414.102,287.446 404.813,292.81 404.355,294.519 406.833,298.809 417.206,292.819 
		414.102,287.446 	"/>
	<polyline fill="#FFFFFF" points="403.337,298.319 403.336,298.319 404.422,300.2 403.337,298.319 	"/>
	<polyline fill="#F6CC3D" points="403.336,298.319 402.542,301.286 404.422,300.2 403.336,298.319 	"/>
	<path fill="#FFFFFF" d="M66.404,247.215l-0.046-0.016c-0.534-0.186-5.592-2.044-10.452-6.314c-2.431-2.134-4.813-4.864-6.585-8.286
		c-1.771-3.423-2.942-7.536-2.943-12.492c0-3.579,0.613-7.601,2.074-12.114c1.79-5.531,2.652-11.144,2.652-16.585
		c-0.001-10.736-3.358-20.812-9.625-28.236c-6.26-7.427-15.468-12.16-26.928-12.152c-4.305,0-8.925,0.663-13.829,2.084
		c-0.53,0.154-0.836,0.708-0.682,1.239c0.154,0.53,0.708,0.836,1.239,0.682c4.742-1.374,9.173-2.005,13.272-2.005
		c10.907,0.008,19.475,4.439,25.4,11.442c5.918,7.005,9.154,16.623,9.153,26.946c0,5.229-0.83,10.637-2.556,15.969
		c-1.517,4.688-2.171,8.922-2.17,12.73c-0.001,5.444,1.34,10.014,3.354,13.767c3.023,5.633,7.528,9.429,11.262,11.823
		c3.738,2.395,6.72,3.396,6.774,3.415c0.524,0.176,1.091-0.106,1.266-0.631C67.209,247.957,66.927,247.391,66.404,247.215z"/>
	<polyline fill="#FFFFFF" points="398.266,317.245 379.959,312.34 396.485,250.663 414.792,255.568 398.266,317.245 	"/>
	<polyline fill="#1CA5BA" points="407.34,269.904 395.77,266.804 398.872,255.233 410.442,258.335 407.34,269.904 	"/>
	<polyline fill="#803150" points="403.522,284.16 391.952,281.06 395.051,269.489 406.622,272.59 403.522,284.16 	"/>
	<polyline fill="#5D478A" points="399.7,298.418 388.131,295.317 391.231,283.747 402.801,286.848 399.7,298.418 	"/>
	<polyline fill="#F4AF17" points="395.881,312.674 384.311,309.574 387.411,298.003 398.981,301.104 395.881,312.674 	"/>
	<polyline fill="#42B5C9" points="404.448,256.729 401.348,268.298 407.34,269.904 410.442,258.335 404.448,256.729 	"/>
	<polyline fill="#FFFFFF" points="397.528,282.554 397.528,282.555 403.522,284.16 397.528,282.554 	"/>
	<polyline fill="#AA647E" points="400.627,270.984 397.528,282.554 403.522,284.16 406.622,272.59 400.627,270.984 	"/>
	<polyline fill="#FFFFFF" points="393.708,296.812 393.708,296.813 399.7,298.418 393.708,296.812 	"/>
	<polyline fill="#8776A8" points="396.807,285.242 393.708,296.812 399.7,298.418 402.801,286.848 396.807,285.242 	"/>
	<polyline fill="#FFFFFF" points="389.887,311.068 389.887,311.068 395.881,312.674 389.887,311.068 	"/>
	<polyline fill="#F6CC3D" points="392.987,299.499 389.887,311.068 395.881,312.674 398.981,301.104 392.987,299.499 	"/>
	<polyline fill="#FFFFFF" points="387.147,308.5 368.196,308.5 368.196,244.647 387.147,244.647 387.147,308.5 	"/>
	<polyline fill="#1CA5BA" points="383.661,260.423 371.682,260.423 371.682,248.445 383.661,248.445 383.661,260.423 	"/>
	<polyline fill="#803150" points="383.661,275.183 371.682,275.183 371.682,263.204 383.661,263.204 383.661,275.183 	"/>
	<polyline fill="#5D478A" points="383.661,289.943 371.682,289.943 371.682,277.965 383.661,277.965 383.661,289.943 	"/>
	<polyline fill="#F4AF17" points="383.661,304.702 371.682,304.702 371.682,292.724 383.661,292.724 383.661,304.702 	"/>
	<polyline fill="#42B5C9" points="383.661,248.445 377.457,248.445 377.457,260.423 383.661,260.423 383.661,248.445 	"/>
	<polyline fill="#AA647E" points="383.661,263.204 377.457,263.204 377.457,275.183 383.661,275.183 383.661,263.204 	"/>
	<polyline fill="#8776A8" points="383.661,277.965 377.457,277.965 377.457,289.943 383.661,289.943 383.661,277.965 	"/>
	<polyline fill="#F6CC3D" points="383.661,292.724 377.457,292.724 377.457,304.702 383.661,304.702 383.661,292.724 	"/>
	<polyline fill="#FFFFFF" points="142.76,185.117 76.985,167.492 99.823,82.262 165.597,99.886 142.76,185.117 	"/>
	<polyline fill="#7C7C7D" points="161.028,98.661 161.028,98.662 163.131,99.225 163.131,99.225 161.028,98.661 	"/>
	<polyline fill="#7C7C7D" points="161.028,98.662 138.19,183.893 140.294,184.456 163.131,99.225 161.028,98.662 	"/>
	<path fill="#444849" d="M137.538,186.329l-60.39-16.182c-2.472-0.662-4.691-2.268-6.072-4.658
		c-1.381-2.393-1.661-5.116-0.999-7.589l18.968-70.787c0.662-2.473,2.268-4.691,4.659-6.072c2.391-1.38,5.116-1.661,7.588-0.999
		l60.39,16.182L137.538,186.329"/>
	
		<rect x="90.432" y="79.361" transform="matrix(0.9659 0.259 -0.259 0.9659 35.7911 -19.6843)" fill="#F4AF17" width="4.352" height="93.284"/>
	<path fill="#8BCEDA" d="M105.552,116.003c-0.597,2.228-0.343,4.681,0.899,6.837c1.244,2.153,3.244,3.599,5.471,4.195l38.722,10.376
		l3.73-13.922l-47.424-12.707L105.552,116.003z"/>
	<path fill="#707777" d="M98.834,82.413c-1.6,0-3.221,0.406-4.707,1.263c-2.258,1.304-3.774,3.399-4.399,5.734l-17.911,66.844
		c-0.625,2.335-0.36,4.906,0.943,7.166c1.161,2.01,2.949,3.427,4.974,4.156l22.779-85.014
		C99.961,82.463,99.398,82.413,98.834,82.413"/>
	<path fill="#FFFFFF" d="M206.138,314.487c-0.632,2.359-2.164,4.478-4.446,5.796c-2.283,1.317-4.883,1.585-7.243,0.952
		L62.44,285.864c-2.359-0.632-4.478-2.164-5.795-4.446s-1.586-4.884-0.954-7.243l14.616-54.545c0.632-2.359,2.165-4.479,4.447-5.797
		c2.282-1.317,4.883-1.584,7.243-0.952l132.009,35.372c2.359,0.632,4.477,2.163,5.795,4.445c1.317,2.283,1.585,4.884,0.953,7.243
		L206.138,314.487"/>
	<polyline fill="#444849" points="173.925,315.736 82.963,291.363 102.519,218.38 193.48,242.753 173.925,315.736 	"/>
	<path fill="#444849" d="M70.003,249.57c1.122-4.186,5.421-6.667,9.604-5.546s6.666,5.419,5.544,9.604
		c-1.12,4.183-5.419,6.664-9.603,5.543C71.365,258.051,68.883,253.753,70.003,249.57"/>
	<path fill="#CCCBCC" d="M71.924,250.085c0.837-3.123,4.047-4.977,7.169-4.14s4.975,4.046,4.138,7.169
		c-0.836,3.121-4.045,4.975-7.167,4.138C72.941,256.415,71.088,253.206,71.924,250.085"/>
	<path fill="#444849" d="M86.855,239.099c-0.351,1.311-1.883,2.048-3.404,1.641l-5.531-1.482c-1.521-0.407-2.479-1.813-2.127-3.123
		c0.351-1.31,1.883-2.047,3.403-1.64l5.531,1.482C86.249,236.384,87.206,237.788,86.855,239.099"/>
	<path fill="#444849" d="M77.221,275.054c-0.351,1.309-1.882,2.047-3.404,1.64l-5.531-1.482c-1.521-0.407-2.479-1.813-2.127-3.122
		s1.883-2.048,3.404-1.641l5.531,1.482C76.615,272.338,77.572,273.743,77.221,275.054"/>
	<path fill="#444849" d="M79.486,266.603c-0.351,1.309-1.883,2.048-3.404,1.641l-5.531-1.482c-1.521-0.407-2.479-1.813-2.127-3.123
		s1.882-2.047,3.404-1.64l5.531,1.482C78.879,263.888,79.837,265.292,79.486,266.603"/>
	<path fill="#707777" d="M83.098,253.544c0,0.002-0.001,0.004-0.002,0.006C83.097,253.548,83.097,253.546,83.098,253.544
		 M83.226,253.13c-0.037,0.137-0.079,0.272-0.125,0.404C83.147,253.402,83.189,253.267,83.226,253.13"/>
	<path fill="#DADADB" d="M77.583,245.745c-1.128,0-2.214,0.331-3.14,0.919l5.84,10.116c1.275-0.665,2.306-1.792,2.813-3.23
		c0.001-0.002,0.001-0.004,0.002-0.006c0.001-0.003,0.002-0.006,0.003-0.01c0.046-0.132,0.088-0.268,0.125-0.404
		c0.001-0.006,0.003-0.011,0.004-0.016c0.136-0.506,0.201-1.015,0.201-1.516c0.002-2.586-1.723-4.952-4.339-5.653l0,0
		C78.588,245.811,78.081,245.745,77.583,245.745"/>
	<polyline fill="#C5C6C6" points="164.937,313.328 164.937,313.328 173.925,315.736 164.937,313.328 	"/>
	<polyline fill="#707777" points="111.509,220.789 164.937,313.328 173.925,315.736 184.14,277.614 184.46,276.418 193.48,242.753 
		111.509,220.789 	"/>
	<path fill="#FFFFFF" d="M75.819,268.173L75.819,268.173l0.185,0.049L75.819,268.173 M75.894,263.088l1.464,0.393
		c1.521,0.407,2.479,1.812,2.127,3.122c-0.286,1.064-1.353,1.753-2.56,1.753c-0.267,0-0.541-0.034-0.815-0.104l0.093,0.024
		c0.284,0.076,0.568,0.112,0.844,0.112c1.208,0,2.274-0.688,2.56-1.753c0.351-1.31-0.607-2.715-2.128-3.122L75.894,263.088"/>
	<path fill="#707777" d="M72.332,262.134l3.487,6.039l0.185,0.049l0.107,0.029c0.274,0.07,0.548,0.104,0.815,0.104
		c1.207,0,2.274-0.688,2.56-1.753c0.351-1.311-0.607-2.715-2.127-3.122l-1.464-0.393L72.332,262.134"/>
	<path fill="#FFFFFF" d="M71.897,271.074l3.196,0.856c1.521,0.407,2.479,1.813,2.127,3.123c-0.286,1.064-1.352,1.752-2.559,1.752
		c-0.259,0-0.525-0.032-0.791-0.099l0.068,0.019c0.284,0.076,0.568,0.112,0.845,0.112c1.207,0,2.273-0.687,2.559-1.752
		c0.351-1.31-0.606-2.716-2.128-3.123L71.897,271.074"/>
	<path fill="#707777" d="M70.068,270.584l3.487,6.038l0.316,0.085c0.266,0.066,0.532,0.099,0.791,0.099
		c1.207,0,2.273-0.688,2.559-1.752c0.351-1.311-0.606-2.716-2.127-3.123l-3.196-0.856L70.068,270.584"/>
	<path fill="#FFFFFF" d="M83.188,240.669L83.188,240.669l0.089,0.023L83.188,240.669 M80.622,234.876l4.106,1.101
		c1.521,0.407,2.479,1.812,2.128,3.122c-0.286,1.066-1.353,1.753-2.559,1.753c-0.263,0-0.533-0.033-0.803-0.102l0.08,0.021
		c0.284,0.076,0.568,0.112,0.845,0.112c1.207,0,2.273-0.687,2.559-1.753c0.351-1.31-0.606-2.715-2.128-3.122L80.622,234.876"/>
	<path fill="#707777" d="M79.702,234.63l3.486,6.039l0.089,0.023l0.215,0.058c0.27,0.068,0.54,0.102,0.803,0.102
		c1.207,0,2.273-0.687,2.559-1.753c0.351-1.311-0.606-2.715-2.128-3.122l-4.106-1.101L79.702,234.63"/>
	<path fill="#444849" d="M89.12,230.647c-0.352,1.311-1.883,2.048-3.404,1.641l-5.531-1.482c-1.521-0.407-2.479-1.813-2.127-3.123
		c0.351-1.31,1.882-2.047,3.403-1.64l5.531,1.482C88.513,227.933,89.471,229.337,89.12,230.647"/>
	<path fill="#FFFFFF" d="M85.453,232.218L85.453,232.218l0.067,0.018L85.453,232.218 M84.982,226.986l2.01,0.539
		c1.521,0.407,2.479,1.812,2.128,3.122c-0.286,1.066-1.353,1.753-2.559,1.753c-0.261,0-0.528-0.032-0.796-0.1l0.073,0.02
		c0.284,0.076,0.568,0.112,0.845,0.112c1.207,0,2.273-0.687,2.559-1.753c0.351-1.31-0.607-2.715-2.128-3.122L84.982,226.986"/>
	<path fill="#707777" d="M81.966,226.179l3.487,6.039l0.067,0.018l0.245,0.065c0.268,0.067,0.535,0.1,0.796,0.1
		c1.207,0,2.273-0.687,2.559-1.753c0.351-1.311-0.607-2.715-2.128-3.122l-2.01-0.539L81.966,226.179"/>
	<polyline fill="#1CA5BA" points="182.945,282.072 192.28,284.573 188.141,277.404 184.46,276.418 182.945,282.072 	"/>
	<polyline fill="#1CA5BA" points="194.7,285.222 196.215,279.567 188.141,277.404 192.28,284.573 194.7,285.222 	"/>
	<polyline fill="#3AB2C7" points="188.141,277.404 192.28,284.573 194.7,285.222 196.215,279.567 188.141,277.404 	"/>
	<path fill="#1CA5BA" d="M244.814,179.349c0-18.501,14.999-33.5,33.5-33.5c18.501,0,33.501,14.999,33.501,33.5s-15,33.5-33.501,33.5
		C259.813,212.849,244.814,197.85,244.814,179.349"/>
	<path fill="#135C6B" d="M278.314,150.849c-15.74,0-28.5,12.761-28.5,28.5s12.76,28.5,28.5,28.5c15.741,0,28.501-12.761,28.501-28.5
		c0-5.085-1.332-9.859-3.666-13.993v0.475l-0.092-0.099c-0.391,2.504-1.99,4.609-4.183,5.698l-0.754,0.438
		c0.879,2.326,1.36,4.847,1.36,7.481c0,11.689-9.477,21.166-21.167,21.166c-9.297,0-17.193-5.994-20.037-14.328l-2.478-1.439
		c-2.193-1.089-3.792-3.193-4.183-5.698l-0.092,0.099v-1.293l0,0l0,0v-4.729l0.057-0.059c-0.038-0.167-0.057-0.342-0.057-0.521
		c0-1.315,1.066-2.382,2.382-2.382c0.159,0,0.315,0.016,0.466,0.045l0.044-0.045h0.044h4.779
		c3.42-7.089,10.676-11.981,19.075-11.981c3.744,0,7.261,0.972,10.312,2.677l0.254-0.365c1.23-1.984,3.332-3.368,5.775-3.607
		c0.025-0.003,0.052-0.005,0.077-0.008l-0.033-0.034h1.107C290.978,153.087,284.908,150.849,278.314,150.849"/>
	<path fill="#0C333F" d="M278.314,158.183c-8.398,0-15.655,4.892-19.075,11.981h0.734l-0.032,0.034
		c0.016,0.001,0.032,0.003,0.049,0.004c2.455,0.232,4.567,1.618,5.802,3.61l8.729,12.504l-0.009,0.013
		c0.622,0.726,1.011,1.656,1.011,2.687c0,1.258-0.57,2.371-1.453,3.133l-0.008-0.008c-0.73,0.64-1.687,1.028-2.734,1.028
		c-0.558,0-1.089-0.114-1.575-0.314l-0.001,0.002l-0.008-0.005c-0.318-0.132-0.609-0.31-0.882-0.512l-10.585-6.152
		c2.844,8.334,10.74,14.328,20.037,14.328c11.69,0,21.167-9.477,21.167-21.166c0-2.634-0.481-5.155-1.36-7.481l-12.31,7.154
		c-0.272,0.202-0.563,0.38-0.882,0.512l-0.008,0.005l-0.001-0.002c-0.486,0.2-1.017,0.314-1.575,0.314
		c-1.047,0-2.004-0.388-2.734-1.028l-0.008,0.008c-0.883-0.762-1.453-1.875-1.453-3.133c0-1.03,0.389-1.961,1.011-2.687
		l-0.009-0.013l8.475-12.139C285.575,159.154,282.058,158.183,278.314,158.183"/>
	<path fill="#EE5823" d="M269.744,192.851c-0.318-0.132-0.609-0.31-0.882-0.512l-13.918-8.089l10.804-10.438l8.73,12.504
		l-0.009,0.013c0.622,0.726,1.011,1.656,1.011,2.687c0,2.293-1.858,4.152-4.151,4.152c-0.558,0-1.089-0.114-1.575-0.314
		l-0.001,0.002L269.744,192.851"/>
	<path fill="#CB844C" d="M266.905,177.854c0-4.247-3.443-7.69-7.69-7.69c-4.247,0-7.69,3.443-7.69,7.69s3.443,7.69,7.69,7.69
		C263.462,185.545,266.905,182.102,266.905,177.854"/>
	<polyline fill="#CB844C" points="254.416,170.164 259.929,170.164 251.524,179.147 251.524,173.125 254.416,170.164 	"/>
	<path fill="#444849" d="M256.288,172.546c0-1.315-1.066-2.382-2.382-2.382s-2.382,1.066-2.382,2.382s1.066,2.382,2.382,2.382
		S256.288,173.861,256.288,172.546"/>
	<path fill="#175566" d="M259.99,170.203c2.484,0.249,4.619,1.68,5.835,3.721l8.652,12.393l-0.009,0.013
		c0.622,0.726,1.011,1.656,1.011,2.687c0,1.246-0.549,2.364-1.417,3.125l0.008,0.008c0.883-0.762,1.453-1.875,1.453-3.133
		c0-1.03-0.389-1.961-1.011-2.687l0.009-0.013l-8.729-12.504C264.558,171.821,262.445,170.435,259.99,170.203 M259.973,170.164
		h-0.734l0,0h0.689l-0.028,0.03c0.014,0.001,0.027,0.002,0.041,0.004L259.973,170.164"/>
	<path fill="#F2844C" d="M265.826,173.924c0.686,1.15,1.079,2.495,1.079,3.931c0,1.98-0.749,3.786-1.979,5.149l9.136,9.136
		c0.869-0.761,1.417-1.879,1.417-3.125c0-1.03-0.389-1.961-1.011-2.687l0.009-0.013L265.826,173.924"/>
	<path fill="#D9A878" d="M259.9,170.194l-3.762,4.021l8.788,8.788c1.23-1.363,1.979-3.169,1.979-5.149
		c0-1.436-0.394-2.78-1.079-3.931c-1.216-2.042-3.352-3.472-5.835-3.721c-0.017-0.001-0.033-0.003-0.049-0.004h0
		C259.928,170.197,259.914,170.195,259.9,170.194"/>
	<path fill="#D9A878" d="M259.929,170.164h-0.689h-4.779l-0.046,0.047c1.093,0.216,1.917,1.179,1.917,2.335
		c0,0.525-0.175,1.006-0.463,1.4l0.27,0.27l3.762-4.021L259.929,170.164"/>
	<path fill="#1CA5BA" d="M284.929,179.533c0.318-0.132,0.609-0.31,0.882-0.512l13.918-8.089l-10.804-10.438l-8.73,12.504
		l0.009,0.013c-0.622,0.726-1.011,1.656-1.011,2.687c0,2.293,1.858,4.152,4.151,4.152c0.558,0,1.089-0.114,1.575-0.314l0.001,0.002
		L284.929,179.533"/>
	<path fill="#CB844C" d="M287.768,164.537c0-4.247,3.443-7.69,7.691-7.69c4.246,0,7.689,3.443,7.689,7.69s-3.443,7.69-7.689,7.69
		C291.211,172.228,287.768,168.784,287.768,164.537"/>
	<polyline fill="#CB844C" points="300.256,156.847 294.745,156.847 303.149,165.83 303.149,159.808 300.256,156.847 	"/>
	<path fill="#444849" d="M298.385,159.229c0-1.315,1.066-2.382,2.383-2.382c1.314,0,2.381,1.066,2.381,2.382
		s-1.066,2.382-2.381,2.382C299.452,161.61,298.385,160.544,298.385,159.229"/>
	<path fill="#257A8D" d="M294.656,156.888c-2.443,0.239-4.545,1.623-5.775,3.607l-0.254,0.365c0.01,0.006,0.021,0.012,0.032,0.018
		l0.19-0.272C290.06,158.572,292.184,157.145,294.656,156.888 M295.807,156.847H294.7l0.033,0.034
		c0.013-0.001,0.026-0.002,0.04-0.003l-0.028-0.03H295.807L295.807,156.847"/>
	<path fill="#175566" d="M288.626,160.86l-8.475,12.139l0.009,0.013c-0.622,0.726-1.011,1.656-1.011,2.687
		c0,1.258,0.57,2.371,1.453,3.133l0.008-0.008c-0.869-0.761-1.417-1.879-1.417-3.125c0-1.03,0.389-1.961,1.011-2.687l-0.009-0.013
		l8.463-12.121C288.647,160.872,288.636,160.866,288.626,160.86"/>
	<path fill="#3AB2C7" d="M288.848,160.605l-0.19,0.272l-8.463,12.121l0.009,0.013c-0.622,0.726-1.011,1.656-1.011,2.687
		c0,1.246,0.549,2.363,1.417,3.125l9.137-9.136c-1.23-1.363-1.979-3.169-1.979-5.149
		C287.768,163.101,288.162,161.756,288.848,160.605"/>
	<path fill="#D9A878" d="M294.773,156.877c-0.014,0.001-0.027,0.002-0.04,0.003v0c-0.025,0.002-0.051,0.005-0.077,0.007
		c-2.472,0.256-4.596,1.684-5.808,3.717c-0.686,1.15-1.08,2.495-1.08,3.932c0,1.98,0.749,3.786,1.979,5.149l8.789-8.788
		L294.773,156.877"/>
	<path fill="#D9A878" d="M300.213,156.847h-4.406h-1.063l0.028,0.03l3.763,4.022l0.27-0.27c-0.289-0.395-0.463-0.875-0.463-1.4
		c0-1.156,0.824-2.119,1.916-2.335L300.213,156.847"/>
	
		<rect x="158.988" y="140.742" transform="matrix(0.9659 0.2588 -0.2588 0.9659 49.7594 -36.512)" fill="#8BCEDA" width="9.159" height="60.018"/>
	<path fill="#FFFFFF" d="M160.365,200.396c-0.199,0.741-0.607,1.426-1.181,1.879c-0.573,0.454-1.2,0.589-1.752,0.441l-4.534-1.215
		c-0.552-0.148-1.028-0.579-1.298-1.258c-0.27-0.68-0.281-1.477-0.082-2.219l1.687-6.293l8.847,2.37L160.365,200.396z"/>
	<polygon fill="#FFFFFF" points="175.753,142.948 174.903,137.087 170.577,135.928 166.911,140.579 	"/>
	<polygon fill="#444849" points="174.089,131.473 170.577,135.928 174.903,137.087 	"/>
	
		<rect x="153.282" y="190.358" transform="matrix(0.9659 0.2589 -0.2589 0.9659 55.099 -34.3207)" fill="#F4AF17" width="9.159" height="3.375"/>
	<path fill="#CCCBCC" d="M234.821,260.002c0.098-0.366,0.476-0.583,0.841-0.485c0.367,0.099,0.584,0.475,0.485,0.841
		c-0.098,0.365-0.474,0.585-0.841,0.486C234.941,260.745,234.723,260.367,234.821,260.002"/>
	<polyline fill="#FFFFFF" points="223.501,318.62 216.643,316.782 229.843,267.517 236.702,269.354 223.501,318.62 	"/>
	<polyline fill="#444849" points="236.232,260.38 234.737,259.979 229.843,267.517 236.702,269.354 236.232,260.38 	"/>
	<path fill="#444849" d="M222.744,321.446c-0.162,0.604-0.554,1.145-1.138,1.481c-0.583,0.338-1.25,0.406-1.853,0.245l-2.141-0.574
		c-0.604-0.161-1.146-0.554-1.482-1.138c-0.337-0.585-0.406-1.249-0.245-1.853l0.757-2.826l6.858,1.838L222.744,321.446"/>
	<path fill="#CCCBCC" d="M236.232,260.381l0.104,1.998c0.024-0.028,0.05-0.055,0.078-0.078l-0.099-1.898L236.232,260.381"/>
	<path fill="#C5C6C6" d="M236.414,262.301c-0.028,0.023-0.054,0.05-0.078,0.078l0.365,6.976l-1.883-0.505l0,0l1.883,0.505
		l-13.201,49.266l-0.757,2.826c-0.162,0.604-0.554,1.145-1.138,1.481c-0.385,0.223-0.805,0.328-1.22,0.328
		c-0.186,0-0.37-0.021-0.55-0.063l0,0.001c0.207,0.056,0.42,0.084,0.635,0.084c0.415,0,0.834-0.105,1.218-0.328
		c0.584-0.338,0.977-0.879,1.139-1.482l0.757-2.826l7.551-28.18c0.229-0.032,0.456-0.103,0.667-0.226
		c0.441-0.255,0.737-0.664,0.859-1.118l0.478-1.781c0.122-0.455,0.069-0.957-0.185-1.397c-0.122-0.213-0.284-0.388-0.466-0.53
		l0.376-1.402c0.229-0.03,0.456-0.103,0.667-0.225c0.441-0.254,0.737-0.663,0.859-1.119l0.477-1.779
		c0.123-0.456,0.07-0.957-0.185-1.398c-0.123-0.211-0.284-0.388-0.465-0.529l2.567-9.58L236.414,262.301"/>
	<polyline fill="#FFFFFF" points="234.818,268.85 221.618,318.115 221.618,318.115 223.501,318.62 236.702,269.354 234.818,268.85 	
		"/>
	<polyline fill="#707777" points="235.566,260.202 234.818,268.85 236.702,269.354 236.336,262.379 236.232,260.381 236.23,260.38 
		235.566,260.202 	"/>
	<path fill="#707777" d="M221.618,318.115c-0.005,0.031-0.58,3.723-1.782,5.078c0.18,0.042,0.364,0.063,0.55,0.063
		c0.415,0,0.835-0.105,1.22-0.328c0.584-0.337,0.977-0.878,1.138-1.481l0.757-2.826L221.618,318.115"/>
	<path fill="#444849" d="M232.579,289.097c-0.122,0.453-0.418,0.863-0.859,1.117c-0.44,0.255-0.943,0.307-1.398,0.185l-0.396-0.106
		l1.431-5.34l0.396,0.105c0.455,0.122,0.865,0.418,1.119,0.859s0.306,0.943,0.184,1.398L232.579,289.097z"/>
	<path fill="#444849" d="M234.308,282.642c-0.122,0.455-0.419,0.865-0.859,1.119c-0.44,0.255-0.943,0.307-1.399,0.185l-0.396-0.106
		l1.432-5.34l0.396,0.105c0.455,0.122,0.865,0.417,1.119,0.859c0.254,0.44,0.306,0.941,0.184,1.398L234.308,282.642z"/>
	<path fill="#444849" d="M208.396,169.655c0,0,0.096-0.143,0.285-0.419c1.414-2.069,7.943-11.465,16.02-20.718
		c4.037-4.626,8.463-9.216,12.807-12.826c4.338-3.615,8.615-6.227,12.198-6.968c6.987-1.47,19.068-5.152,29.508-11.238
		c5.218-3.046,10.028-6.693,13.569-11.012c3.538-4.312,5.804-9.337,5.801-15.012c0.001-4.477-1.407-9.314-4.578-14.473
		c-0.289-0.471-0.905-0.618-1.375-0.329s-0.618,0.905-0.329,1.375c3.018,4.916,4.281,9.373,4.282,13.426
		c-0.002,5.129-2.023,9.68-5.349,13.744c-4.981,6.091-12.908,10.98-20.876,14.574c-7.966,3.598-15.971,5.918-21.064,6.987
		c-4.427,0.942-9.186,4.055-13.959,8.142c-7.146,6.137-14.275,14.531-19.641,21.402c-5.362,6.871-8.951,12.216-8.959,12.229
		c-0.308,0.458-0.186,1.08,0.272,1.387C207.467,170.236,208.088,170.114,208.396,169.655"/>
	<path fill="#444849" d="M239.195,74.51l-0.009,0.032c-0.229,0.788-4.687,15.188-19.91,25.471c-2.206,1.493-3.748,2.806-4.779,4.06
		c-1.027,1.246-1.558,2.488-1.556,3.72c-0.001,0.834,0.244,1.616,0.625,2.319c0.672,1.232,1.731,2.281,2.912,3.37
		c1.775,1.625,3.853,3.329,5.46,5.443c1.606,2.12,2.757,4.596,2.763,7.919c0,2.362-0.594,5.175-2.123,8.581
		c-1.528,3.404-3.991,7.393-7.694,12.071c-5.754,7.261-8.32,13.909-8.317,20.375c0.001,6.24,2.374,12.203,6.27,18.334
		c5.852,9.203,15.161,18.886,25.581,30.757c10.421,11.868,21.957,25.904,32.263,43.719c11.333,19.594,14.962,36.222,14.964,49.533
		c0,12.161-3.034,21.568-6.058,27.935c-1.513,3.183-3.023,5.604-4.149,7.222c-0.563,0.81-1.03,1.418-1.354,1.82
		c-0.162,0.202-0.287,0.352-0.371,0.449l-0.093,0.108l-0.022,0.023l-0.004,0.005c-0.371,0.409-0.34,1.042,0.069,1.413
		c0.409,0.37,1.042,0.34,1.413-0.069c0.05-0.056,3.187-3.525,6.317-10.113c3.13-6.586,6.252-16.296,6.252-28.793
		c0.001-13.679-3.744-30.68-15.232-50.535c-13.869-23.975-29.932-41.142-42.462-55.25c-6.265-7.052-11.645-13.342-15.425-19.296
		c-3.786-5.96-5.959-11.547-5.958-17.262c0.003-5.918,2.315-12.089,7.886-19.134c3.778-4.773,6.332-8.889,7.95-12.493
		c1.618-3.602,2.299-6.699,2.299-9.4c0.003-2.899-0.794-5.324-1.973-7.345c-1.769-3.033-4.35-5.188-6.397-7.036
		c-1.025-0.921-1.916-1.766-2.51-2.548c-0.6-0.789-0.881-1.462-0.88-2.123c0.001-0.646,0.26-1.42,1.102-2.451
		c0.837-1.023,2.243-2.247,4.354-3.672c16.31-11.038,20.687-26.499,20.724-26.615c0.15-0.531-0.159-1.084-0.69-1.234
		C239.898,73.669,239.345,73.979,239.195,74.51"/>
	<path fill="#444849" d="M259.251,69.549l0.009-0.001l0.11,0.017c-0.096-1.795-1.581-3.237-3.398-3.237h-8.09
		c-1.878,0-3.416,1.537-3.416,3.416v10.078c0,1.879,1.538,3.416,3.416,3.416h8.09c1.817,0,3.302-1.442,3.398-3.237l-0.11,0.017
		l-0.009-0.001L259.352,80l0.019-0.179V69.743l-0.019-0.179L259.251,69.549"/>
	<path fill="#FFFFFF" d="M244.466,80.572l-5.628-1.106c-0.797-0.1-1.563-0.479-2.136-1.129c-0.573-0.649-0.854-1.456-0.854-2.261
		v-2.588c0-0.805,0.281-1.611,0.854-2.261c0.574-0.65,1.339-1.029,2.136-1.129l5.628-1.106V80.572z"/>
	<path fill="#22262A" d="M259.242,69.548c-1.245,0-2.263,1.537-2.263,3.416v3.637c0,1.879,1.019,3.416,2.263,3.416l0.11-0.017
		l0.019-0.179V69.743l-0.019-0.179L259.242,69.548"/>
	<path fill="#444849" d="M302.801,58.919l0.006-0.006l0.096-0.059c-1.23-1.311-3.295-1.456-4.685-0.285l-6.186,5.215
		c-1.436,1.211-1.621,3.377-0.41,4.813l6.497,7.705c1.211,1.437,3.377,1.621,4.813,0.41l6.186-5.215
		c1.39-1.172,1.595-3.23,0.512-4.665l-0.073,0.083l-0.009,0.005l0.067-0.076l-0.101-0.148l-6.496-7.705l-0.129-0.125L302.801,58.919
		"/>
	<path fill="#FFFFFF" d="M298.603,76.877l-5.016,2.782c-0.674,0.438-1.503,0.641-2.36,0.514c-0.858-0.127-1.592-0.563-2.111-1.178
		l-1.668-1.979c-0.519-0.615-0.824-1.413-0.804-2.279c0.019-0.867,0.36-1.65,0.905-2.24l3.589-4.474L298.603,76.877z"/>
	<polyline fill="#56565C" points="309.615,66.845 309.547,66.921 309.549,66.92 309.615,66.845 	"/>
	<path fill="#22262A" d="M302.889,58.866L302.889,58.866l-0.096,0.059c-0.951,0.802-0.74,2.634,0.472,4.07l2.345,2.78
		c0.824,0.978,1.908,1.531,2.815,1.531c0.426,0,0.813-0.122,1.116-0.377l0.008-0.009l-0.002,0.001l0.067-0.076l-0.101-0.148
		l-6.496-7.705L302.889,58.866"/>
	<polyline fill="#444849" points="213.5,176.782 202.25,176.782 202.25,164.489 213.5,164.489 213.5,176.782 	"/>
	<polyline fill="#CCCBCC" points="209.833,176.782 205.917,176.782 205.917,164.489 209.833,164.489 209.833,176.782 	"/>
	<polyline fill="#767B7A" points="212.039,164.489 209.571,164.489 209.571,164.489 209.833,164.489 212.039,164.489 
		212.039,164.489 	"/>
	<path fill="#767B7A" d="M205.917,164.489h-2.959l2.959,2.959V164.489 M213.5,164.489h-1.461h-2.205v6.876l3.667,3.667V164.489"/>
	<polyline fill="#DDDDDE" points="209.833,164.489 209.571,164.489 208.82,164.489 206.799,164.489 205.917,164.489 
		205.917,167.449 209.833,171.366 209.833,164.489 	"/>
	<path fill="#444849" d="M141.32,33.521c0,2.75-2.25,5-5,5h-15.709c-2.75,0-5-2.25-5-5v-2.189c0-2.75,2.25-5,5-5h15.709
		c2.75,0,5,2.25,5,5V33.521z"/>
	<path fill="#444849" d="M134.634,32.427C134.634,14.519,149.151,0,167.061,0s32.427,14.519,32.427,32.427
		s-14.518,32.427-32.427,32.427S134.634,50.335,134.634,32.427"/>
	<path fill="#1CA5BA" d="M142.249,32.427c0-13.703,11.108-24.812,24.812-24.812s24.812,11.108,24.812,24.812
		s-11.108,24.812-24.812,24.812S142.249,46.13,142.249,32.427"/>
	<path fill="#32363A" d="M191.865,33.047c0,0.002,0,0.003,0,0.005C191.864,33.05,191.864,33.049,191.865,33.047 M191.866,32.997
		c0,0.001,0,0.003,0,0.004C191.866,32.999,191.866,32.998,191.866,32.997 M191.868,32.889c0,0.002,0,0.006,0,0.009
		C191.868,32.895,191.868,32.892,191.868,32.889 M191.869,32.838c0,0.004,0,0.007,0,0.012
		C191.869,32.846,191.869,32.841,191.869,32.838 M191.87,32.791L191.87,32.791L191.87,32.791 M191.87,32.732
		c0,0.003,0,0.006,0,0.009C191.87,32.738,191.87,32.735,191.87,32.732 M191.871,32.68c0,0.005,0,0.008,0,0.014
		C191.871,32.689,191.871,32.684,191.871,32.68 M191.871,32.631c0,0.004,0,0.01,0,0.014
		C191.871,32.64,191.871,32.635,191.871,32.631 M191.872,32.575c0,0.003,0,0.006,0,0.009
		C191.872,32.582,191.872,32.579,191.872,32.575 M191.872,32.522c0,0.005,0,0.011,0,0.016
		C191.872,32.532,191.872,32.527,191.872,32.522 M191.872,32.474c0,0.005,0,0.01,0,0.015
		C191.872,32.483,191.872,32.479,191.872,32.474 M166.44,7.623c-0.002,0-0.003,0-0.005,0C166.437,7.623,166.438,7.623,166.44,7.623
		 M166.491,7.622c-0.001,0-0.003,0-0.004,0C166.487,7.622,166.49,7.622,166.491,7.622 M166.598,7.62c-0.002,0-0.005,0-0.008,0
		C166.592,7.62,166.595,7.62,166.598,7.62 M166.648,7.619c-0.003,0-0.006,0-0.009,0C166.642,7.619,166.646,7.619,166.648,7.619
		 M166.697,7.618L166.697,7.618C166.697,7.618,166.696,7.618,166.697,7.618 M166.756,7.617c-0.004,0-0.007,0-0.011,0
		C166.75,7.617,166.752,7.617,166.756,7.617 M166.807,7.617c-0.004,0-0.009,0-0.014,0C166.798,7.617,166.802,7.617,166.807,7.617
		 M166.855,7.616c-0.003,0-0.006,0-0.01,0C166.848,7.616,166.852,7.616,166.855,7.616 M166.914,7.616c-0.004,0-0.008,0-0.012,0
		C166.905,7.616,166.91,7.616,166.914,7.616 M166.965,7.615c-0.005,0-0.01,0-0.015,0C166.955,7.615,166.96,7.615,166.965,7.615
		 M167.013,7.615c-0.005,0-0.009,0-0.014,0C167.004,7.615,167.008,7.615,167.013,7.615"/>
	<path fill="#178094" d="M181.982,23.558c-0.63,0-1.139-0.51-1.139-1.139s0.509-1.139,1.139-1.139s1.139,0.51,1.139,1.139
		S182.612,23.558,181.982,23.558 M173.468,16.74c-0.629,0-1.139-0.509-1.139-1.139s0.51-1.139,1.139-1.139s1.139,0.509,1.139,1.139
		S174.097,16.74,173.468,16.74 M164.169,14.637c-0.995,0-1.802-0.807-1.802-1.802c0-0.996,0.807-1.803,1.802-1.803
		s1.802,0.807,1.802,1.803C165.972,13.83,165.165,14.637,164.169,14.637 M167.061,7.615L167.061,7.615c-0.016,0-0.031,0-0.047,0
		c-0.005,0-0.009,0-0.014,0c-0.011,0-0.023,0-0.034,0c-0.005,0-0.01,0-0.015,0c-0.012,0-0.025,0-0.037,0c-0.003,0-0.008,0-0.012,0
		c-0.016,0-0.031,0-0.047,0c-0.003,0-0.007,0-0.01,0c-0.013,0-0.025,0-0.038,0c-0.005,0-0.009,0-0.014,0c-0.012,0-0.024,0-0.037,0
		c-0.004,0-0.007,0-0.011,0c-0.017,0-0.033,0-0.049,0c-0.001,0,0,0-0.001,0c-0.016,0-0.031,0-0.047,0.001c-0.003,0-0.006,0-0.009,0
		c-0.014,0-0.028,0-0.042,0.001c-0.002,0-0.005,0-0.008,0c-0.033,0-0.066,0.001-0.099,0.002c-0.001,0-0.003,0-0.004,0
		c-0.015,0-0.031,0.001-0.046,0.001c-0.002,0-0.003,0-0.005,0c-8.625,0.213-16.154,4.831-20.433,11.688
		c3.806-2.376,8.3-3.754,13.118-3.754c11.453,0,21.093,7.76,23.951,18.308c0.02,0,0.041,0,0.061,0c1.362,0,2.466,1.104,2.466,2.466
		c0,1.103-0.724,2.036-1.722,2.352c0.037,0.558,0.056,1.12,0.056,1.687c0,4.817-1.377,9.311-3.753,13.116
		c6.855-4.279,11.473-11.807,11.686-20.433c0-0.001,0-0.003,0-0.005c0-0.015,0-0.031,0.001-0.046c0,0,0-0.003,0-0.004
		c0-0.033,0.001-0.066,0.002-0.099c0-0.002,0-0.006,0-0.009c0-0.014,0-0.025,0.001-0.039c0-0.004,0-0.008,0-0.012
		c0-0.016,0-0.031,0.001-0.047v0c0-0.016,0-0.033,0-0.049c0-0.003,0-0.006,0-0.009c0-0.013,0-0.025,0-0.038c0-0.005,0-0.009,0-0.014
		c0-0.012,0-0.024,0-0.036c0-0.004,0-0.009,0-0.014c0-0.016,0-0.03,0-0.046c0-0.003,0-0.006,0-0.009c0-0.013,0-0.025,0-0.038
		c0-0.005,0-0.011,0-0.016c0-0.011,0-0.023,0-0.034c0-0.005,0-0.009,0-0.015c0-0.016,0-0.031,0-0.047
		C191.872,18.724,180.764,7.615,167.061,7.615"/>
	<path fill="#44B5C9" d="M153.943,28.933c-1.362,0-2.466,1.104-2.466,2.466s1.104,2.466,2.466,2.466s2.466-1.104,2.466-2.466
		S155.305,28.933,153.943,28.933"/>
	<path fill="#44B5C9" d="M183.07,33.865c-1.334,0.032-2.405,1.124-2.405,2.465c0,1.362,1.104,2.466,2.466,2.466
		c0.259,0,0.509-0.04,0.744-0.114C183.764,37.026,183.49,35.416,183.07,33.865"/>
	<path fill="#359AAD" d="M183.131,33.864c-0.02,0-0.041,0-0.061,0c0.42,1.551,0.693,3.162,0.805,4.817
		c0.998-0.315,1.722-1.249,1.722-2.352C185.597,34.968,184.493,33.864,183.131,33.864"/>
	<path fill="#44B5C9" d="M169.657,41.865c-0.995,0-1.802,0.807-1.802,1.803c0,0.995,0.807,1.802,1.802,1.802
		s1.802-0.807,1.802-1.802C171.459,42.672,170.652,41.865,169.657,41.865"/>
	<path fill="#359AAD" d="M164.169,11.032c-0.995,0-1.802,0.807-1.802,1.803c0,0.995,0.807,1.802,1.802,1.802
		s1.802-0.807,1.802-1.802C165.972,11.839,165.165,11.032,164.169,11.032"/>
	<path fill="#44B5C9" d="M160.451,21.163c-0.439,0-0.795,0.355-0.795,0.795s0.356,0.795,0.795,0.795s0.795-0.355,0.795-0.795
		S160.89,21.163,160.451,21.163"/>
	<path fill="#44B5C9" d="M164.169,28.538c-0.629,0-1.139,0.509-1.139,1.139s0.51,1.139,1.139,1.139s1.139-0.509,1.139-1.139
		S164.798,28.538,164.169,28.538"/>
	<path fill="#359AAD" d="M173.468,14.463c-0.629,0-1.139,0.509-1.139,1.139s0.51,1.139,1.139,1.139s1.139-0.509,1.139-1.139
		S174.097,14.463,173.468,14.463"/>
	<path fill="#44B5C9" d="M161.246,40.727c-0.629,0-1.139,0.509-1.139,1.139s0.51,1.139,1.139,1.139s1.139-0.509,1.139-1.139
		S161.875,40.727,161.246,40.727"/>
	<path fill="#44B5C9" d="M169.657,52.346c-0.629,0-1.139,0.509-1.139,1.139s0.51,1.139,1.139,1.139s1.139-0.509,1.139-1.139
		S170.286,52.346,169.657,52.346"/>
	<path fill="#44B5C9" d="M174.263,25.343c-0.439,0-0.795,0.356-0.795,0.795s0.355,0.795,0.795,0.795s0.795-0.356,0.795-0.795
		S174.703,25.343,174.263,25.343"/>
	<path fill="#359AAD" d="M181.982,21.28c-0.63,0-1.139,0.51-1.139,1.139s0.509,1.139,1.139,1.139s1.139-0.51,1.139-1.139
		S182.612,21.28,181.982,21.28"/>
	<path fill="#44B5C9" d="M171.935,34.053c-0.63,0-1.139,0.51-1.139,1.139s0.509,1.139,1.139,1.139s1.139-0.51,1.139-1.139
		S172.564,34.053,171.935,34.053"/>
	<path fill="#44B5C9" d="M151.478,21.614c-0.63,0-1.139,0.51-1.139,1.139s0.509,1.139,1.139,1.139s1.139-0.51,1.139-1.139
		S152.107,21.614,151.478,21.614"/>
	<path fill="#44B5C9" d="M153.943,44.977c-0.63,0-1.139,0.51-1.139,1.139s0.509,1.139,1.139,1.139s1.139-0.51,1.139-1.139
		S154.573,44.977,153.943,44.977"/>
	<path fill="#44B5C9" d="M179.526,43.838c-0.63,0-1.139,0.51-1.139,1.139s0.509,1.139,1.139,1.139s1.139-0.51,1.139-1.139
		S180.156,43.838,179.526,43.838"/>
	<polygon fill="#FFFFFF" points="427.397,211.479 428.698,214.587 431.247,214.61 432.604,211.527 	"/>
	<polygon fill="#444849" points="429.946,217.563 431.247,214.61 428.698,214.587 	"/>
	<polygon fill="#F4AF17" points="432.868,182.882 432.87,182.882 432.883,181.261 432.917,177.393 427.709,177.345 427.395,211.48 
		432.604,211.527 	"/>
	<path fill="#FFFFFF" d="M427.706,177.656c0.006-0.438,0.133-0.873,0.385-1.204c0.25-0.332,0.576-0.495,0.902-0.493l2.67,0.026
		c0.324,0.002,0.646,0.172,0.891,0.508c0.248,0.335,0.365,0.772,0.363,1.208l-0.037,3.707l-5.207-0.048L427.706,177.656z"/>
	<polygon fill="#FFFFFF" points="379.733,202.55 387.223,188.522 390.043,190.444 	"/>
	<polyline fill="#444849" points="389.899,194.229 383.788,190.176 421.831,132.818 427.942,136.873 389.899,194.229 	"/>
	<polyline fill="#444849" points="419.715,198.521 427.049,198.521 427.192,134.435 419.858,134.435 419.715,198.521 	"/>
	<polygon fill="#FFFFFF" points="426.934,202.4 433.301,202.4 433.407,188.931 427.043,188.931 	"/>
	<polygon fill="#444849" points="433.35,197.693 435.688,197.694 435.727,192.747 433.389,192.747 	"/>
	<path fill="#8BCEDA" d="M430.038,155.263c0,0-5.699,2.159-12.119,0.224c-6.418-1.936-9.975-6.886-9.975-6.886l11.822-25.332
		l14.424,4.35L430.038,155.263"/>
	<polyline fill="#DDDDDC" points="431.479,126.801 431.479,126.801 434.19,127.618 431.479,126.801 	"/>
	<polyline fill="#C8C9C9" points="426.979,125.443 426.979,125.443 431.479,126.801 431.479,126.801 426.979,125.443 	"/>
	<path fill="#C8C9C9" d="M430.038,155.263c-0.007,0.002-1.112,0.42-2.894,0.723l0,0
		C428.926,155.683,430.031,155.265,430.038,155.263"/>
	<path fill="#767B7A" d="M427.144,155.985c-1.013,0.172-2.244,0.307-3.616,0.307C424.9,156.292,426.131,156.157,427.144,155.985
		L427.144,155.985"/>
	<path fill="#AFDDE5" d="M426.979,125.443l-9.061,30.043l0,0c0.023,0.007,0.047,0.014,0.07,0.021
		c1.96,0.582,3.852,0.785,5.531,0.785c0.002,0,0.003,0,0.005,0c0.001,0,0.002,0,0.003,0c1.372,0,2.604-0.135,3.616-0.307
		c1.781-0.303,2.887-0.72,2.894-0.723l0,0l4.152-27.645l-2.711-0.817L426.979,125.443"/>
	<circle fill="#FFFFFF" cx="423.597" cy="136.657" r="6"/>
	<circle fill="#444849" cx="423.596" cy="136.656" r="4.333"/>
	
		<rect x="426.575" y="111.727" transform="matrix(0.9575 0.2885 -0.2885 0.9575 52.5192 -118.817)" fill="#FFFFFF" width="5.463" height="14.037"/>
</g>
</svg>
